<svg viewBox="0 0 14 10" xmlns="http://www.w3.org/2000/svg"><g fill="#fff" fill-rule="evenodd" transform="translate(-5 -7)"><path d="m10.29 16.296225c-.292875.292875-.767625.292875-1.0605 0l-3.7125-3.712125c-.292875-.29325-.292875-.768 0-1.060875s.768-.292875 1.0605 0l3.7125 3.7125c.292875.292875.292875.767625 0 1.0605"/><path d="m9.233475 16.2727875c.292875.292875.767625.292875 1.0605 0l7.55625-7.60275c.292875-.292875.292875-.768 0-1.060875s-.768-.292875-1.060875 0l-7.555875 7.603125c-.292875.292875-.292875.767625 0 1.0605"/><path d="m10.29 16.296225c-.292875.292875-.767625.292875-1.0605 0l-3.7125-3.712125c-.292875-.29325-.292875-.768 0-1.060875s.768-.292875 1.0605 0l3.7125 3.7125c.292875.292875.292875.767625 0 1.0605"/><path d="m9.233475 16.2727875c.292875.292875.767625.292875 1.0605 0l7.55625-7.60275c.292875-.292875.292875-.768 0-1.060875s-.768-.292875-1.060875 0l-7.555875 7.603125c-.292875.292875-.292875.767625 0 1.0605"/></g></svg>