<svg xmlns="http://www.w3.org/2000/svg" class="header__logo-svg" width="155" height="40" viewBox="0 0 155 40" fill="#00beff"><path d="M44.511 11.8v3.632h1.3a.6.6 0 0 1 .65.681v7.047c0 1.758-.8 2.969-2.163 2.969-1.6 0-2.4-1-2.4-3.918V11.8h-9.451v3.632h1.024a.552.552 0 0 1 .615.6v6.311c0 6.483 1.952 9.529 7.846 9.529a6.306 6.306 0 0 0 5.543-3.007l1.237 2.46h7.195v-3.8h-1.283a.587.587 0 0 1-.63-.64V11.8h-9.483zm12.981 0v3.55h1.032a.551.551 0 0 1 .607.6v10.977a.56.56 0 0 1-.621.6h-1.018v3.8h10.93v-3.8h-1.244a.583.583 0 0 1-.629-.611V11.8h-9.057zm26.186-.312a7.865 7.865 0 0 0-4.722 1.679l-.685-1.367h-8.918v3.671h1a.6.6 0 0 1 .636.642v18.844a.586.586 0 0 1-.609.615h-1.03v3.718h11.675v-3.718h-1.508a.553.553 0 0 1-.6-.615v-4.728a7.615 7.615 0 0 0 5.075 1.524c5.036 0 8.9-3.827 8.9-10.036-.001-5.547-3.124-10.233-9.214-10.233zm-1.951 15.187c-1.483 0-2.811-2.031-2.811-4.686-.156-3.085 1.249-5 2.772-5 1.718 0 2.81 2.46 2.81 4.8.002 2.973-1.132 4.886-2.771 4.886zm26.166-15.191a7.867 7.867 0 0 0-4.722 1.679l-.685-1.363h-8.918v3.671h1a.6.6 0 0 1 .636.642v18.844a.586.586 0 0 1-.609.615h-1.03v3.718h11.675v-3.718h-1.507a.552.552 0 0 1-.6-.615v-4.728a7.612 7.612 0 0 0 5.074 1.524c5.036 0 8.9-3.827 8.9-10.036 0-5.547-3.123-10.233-9.214-10.233zm-1.951 15.191c-1.483 0-2.81-2.031-2.81-4.686-.156-3.085 1.249-5 2.771-5 1.718 0 2.811 2.46 2.811 4.8 0 2.973-1.133 4.886-2.772 4.886zm24.521.256a4.268 4.268 0 0 1-4.473-3.419h12.748a11.326 11.326 0 0 0-.077-6.6c-1.132-3.281-4.685-5.663-9.331-5.663-5.893 0-10.5 3.788-10.5 10.193 0 7.5 5.465 10.583 10.306 10.583a12.284 12.284 0 0 0 9.568-3.919l-2.776-3.267a7.994 7.994 0 0 1-5.465 2.092zm-1.633-10.409c2.5 0 2.849 1.978 2.889 3.462h-5.895c.076-.976.624-3.462 3.006-3.462zm26.157.737V10.82c-4.02 0-5.036 1.6-6.051 3.476l-1.17-2.5h-7.339v3.654h.948a.675.675 0 0 1 .731.641v10.76a.685.685 0 0 1-.731.754h-.987v3.717h11.047v-3.716h-1.264a.627.627 0 0 1-.688-.719v-4.7c0-3.439 1.881-4.928 5.504-4.928zM29.661 28.7c0 1.389-.357 2.04-1.211 2.04-1.106 0-1.852-1.47-2.1-2.879 2.434-2.656 3.674-6.42 3.674-11.069 0-9.432-4.691-15.719-15.137-15.719-8.9 0-14.871 6.376-14.871 15.408 0 10.45 6.2 15.675 15.137 15.675a21.375 21.375 0 0 0 3.453-.266 7.8 7.8 0 0 0 7.177 4.915c4.426 0 7.051-2.513 7.051-7.821v-1.43h-3.173V28.7zm-14.639-3.1c-3.7 0-5.294-4.089-5.294-9.134s1.66-9.126 5.294-9.126 5.3 4.089 5.3 9.133-1.598 9.133-5.3 9.133zM62.522.7a4.551 4.551 0 1 0 4.548 4.561 4.55 4.55 0 0 0-4.549-4.55z" fill-rule="evenodd"/></svg>