<?xml version="1.0" encoding="utf-8"?>
<!-- Generator: Adobe Illustrator 23.0.4, SVG Export Plug-In . SVG Version: 6.00 Build 0)  -->
<svg version="1.1" id="レイヤー_1" xmlns="http://www.w3.org/2000/svg" xmlns:xlink="http://www.w3.org/1999/xlink" x="0px"
	 y="0px" width="175" viewBox="0 0 157 30" style="enable-background:new 0 0 157 30;" xml:space="preserve">
<style type="text/css">
	.st0{fill:#FFFFFF;}
	.st1{fill:none;}
	.st2{fill:#727171;}
	.st3{fill:#92308D;}
	.st4{fill:#0086CD;}
	.st5{fill:#E8382F;}
	.st6{fill:#D95097;}
	.st7{fill:#00A9E4;}
	.st8{fill:#3DB4E1;}
	.st9{fill:#F39800;}
	.st10{fill:#FDD000;}
	.st11{fill:#45B035;}
	.st12{fill:#8FC31F;}
	.st13{fill:#009D85;}
	.st14{fill:#E61478;}
</style>
<g>
	<circle class="st0" cx="15.32" cy="15.45" r="10.5"/>
	<g>
		<rect x="-16.17" y="-16.81" class="st1" width="189.29" height="63.55"/>
		<g>
			<g>
				<g>
					<g>
						<path class="st2" d="M50.49,6.51l7.83,17.05h-1.37l-2.68-5.85h-8.28l-2.67,5.85h-1.37l7.83-17.05H50.49z M53.77,16.62
							l-3.65-7.97l-3.64,7.97H53.77z"/>
						<path class="st2" d="M66.02,23.56h-1.19V6.63h1.19V23.56z M73.91,12.41l-6.1,5.29l7.04,5.86h-1.63l-7.04-5.85l6.16-5.3H73.91z
							"/>
						<path class="st2" d="M89.37,21.62v0.99c-1.03,0.78-1.78,1.16-2.25,1.16c-0.27,0-0.46-0.09-0.57-0.27
							c-0.11-0.18-0.18-0.55-0.23-1.11c-1.17,0.92-2.34,1.38-3.49,1.38c-0.84,0-1.55-0.27-2.13-0.82c-0.58-0.55-0.87-1.22-0.87-2
							c0-1.21,0.56-2.17,1.68-2.87c1.12-0.7,2.73-1.1,4.81-1.21v-1.42c0-1.52-0.82-2.28-2.47-2.28c-1.05,0-2.19,0.47-3.41,1.42
							v-1.22c1.26-0.79,2.46-1.19,3.6-1.19c1.01,0,1.84,0.25,2.5,0.75c0.65,0.5,0.98,1.22,0.98,2.16v6.94
							c0,0.38,0.09,0.57,0.27,0.57C88.01,22.61,88.54,22.28,89.37,21.62 M86.31,21.35v-3.48c-1.53-0.06-2.79,0.21-3.8,0.81
							c-1.01,0.59-1.51,1.35-1.51,2.27c0,0.52,0.21,0.95,0.63,1.31c0.42,0.36,0.95,0.53,1.57,0.53
							C84.23,22.8,85.26,22.32,86.31,21.35"/>
						<path class="st2" d="M98.2,8.72v3.7h3.13v0.97H98.2v6.63c0,1.07,0.09,1.77,0.26,2.1c0.17,0.34,0.64,0.5,1.4,0.5
							c0.58,0,1.26-0.18,2.04-0.55v1.14c-0.78,0.38-1.55,0.57-2.3,0.57c-0.74,0-1.35-0.21-1.84-0.63c-0.49-0.42-0.74-1-0.74-1.74
							v-8.02H94v-0.97h3.01V9.76l0.81-1.04H98.2z"/>
						<path class="st2" d="M114.6,13.14v1.28c-1.13-0.76-2.15-1.14-3.05-1.14c-0.67,0-1.24,0.18-1.7,0.54
							c-0.46,0.36-0.69,0.81-0.69,1.34c0,0.38,0.14,0.73,0.42,1.04c0.28,0.32,1.05,0.72,2.31,1.21c1.26,0.49,2.09,0.99,2.48,1.52
							c0.39,0.52,0.58,1.11,0.58,1.76c0,0.86-0.35,1.59-1.05,2.19c-0.7,0.59-1.57,0.89-2.61,0.89c-1.12,0-2.24-0.34-3.34-1.02V21.6
							c1.32,0.68,2.48,1.02,3.5,1.02c0.69,0,1.25-0.18,1.69-0.54c0.44-0.36,0.66-0.83,0.66-1.39c0-0.39-0.14-0.74-0.43-1.07
							c-0.29-0.33-1.06-0.74-2.33-1.24c-1.26-0.5-2.08-1-2.46-1.49c-0.37-0.49-0.56-1.03-0.56-1.63c0-0.85,0.35-1.57,1.05-2.16
							c0.7-0.59,1.55-0.89,2.55-0.89C112.53,12.19,113.53,12.51,114.6,13.14"/>
						<path class="st2" d="M130.08,23.56v-1.84h-0.05c-0.52,0.74-1.05,1.27-1.59,1.59c-0.54,0.31-1.24,0.47-2.08,0.47
							c-1.2,0-2.19-0.39-2.97-1.16c-0.78-0.78-1.18-1.87-1.18-3.3v-6.91h1.19v6.88c0,1.03,0.28,1.85,0.85,2.44
							c0.56,0.59,1.3,0.88,2.21,0.88c0.78,0,1.44-0.18,1.98-0.53c0.55-0.36,1.09-0.97,1.64-1.84v-7.83h1.19v11.15H130.08z"/>
						<path class="st2" d="M140.46,23.56h-1.19V6.63h1.19V23.56z M148.35,12.41l-6.1,5.29l7.04,5.86h-1.63l-7.04-5.85l6.16-5.3
							H148.35z"/>
						<path class="st2" d="M156.3,8.67h-1.2V6.63h1.2V8.67z M156.3,23.56h-1.2V12.41h1.2V23.56z"/>
					</g>
				</g>
			</g>
			<g>
				<path class="st3" d="M9.46,23.1l-2.77,3.8c2.41,1.8,5.4,2.88,8.63,2.92l-0.01-4.78C13.12,25.03,11.1,24.31,9.46,23.1"/>
				<path class="st4" d="M5.97,18.4L1.56,19.9c0.98,2.82,2.78,5.26,5.12,7.01l2.77-3.8C7.87,21.93,6.64,20.3,5.97,18.4"/>
				<path class="st5" d="M21.03,23.27l2.78,3.98c2.7-1.85,4.76-4.57,5.76-7.76l-4.69-1.47C24.22,20.18,22.85,22.02,21.03,23.27"/>
				<path class="st6" d="M15.37,25.04c-0.02,0-0.04,0-0.06,0l0.01,4.78c0.06,0,0.12,0,0.18,0c3.09,0,5.95-0.95,8.32-2.57l-2.78-3.98
					C19.43,24.39,17.47,25.04,15.37,25.04"/>
				<path class="st7" d="M5.97,18.4l-0.01,0c-0.37-1.04-0.58-2.16-0.58-3.33c0-1.05,0.14-2.06,0.44-3.01l0.05,0.01
					c0-0.01,0-0.01,0-0.01l-4.45-1.39c-0.43,1.39-0.67,2.87-0.67,4.4c0,1.69,0.29,3.31,0.81,4.82L5.97,18.4
					C5.97,18.4,5.97,18.4,5.97,18.4"/>
				<path class="st8" d="M5.86,12.08l-0.05-0.01c-0.3,0.95-0.44,1.96-0.44,3.01c0,1.17,0.22,2.29,0.58,3.33l0.01,0
					C5.6,17.36,5.4,16.24,5.4,15.08C5.4,14.03,5.56,13.03,5.86,12.08"/>
				<path class="st9" d="M25.33,15.08c0,1.03-0.16,2.02-0.44,2.95l4.69,1.47c0.44-1.39,0.67-2.88,0.67-4.42
					c0-1.62-0.27-3.18-0.75-4.64l-4.65,1.57C25.16,12.98,25.33,14.01,25.33,15.08"/>
				<path class="st10" d="M24.06,3.07L21.2,7c1.7,1.23,2.99,2.98,3.65,5.01l4.65-1.57C28.51,7.44,26.58,4.87,24.06,3.07"/>
				<path class="st11" d="M15.29,5.11l-0.01-4.78c-3.12,0.05-6,1.06-8.36,2.75l2.7,3.86C11.22,5.8,13.18,5.13,15.29,5.11"/>
				<path class="st12" d="M15.37,5.11c2.18,0,4.19,0.7,5.83,1.89l2.86-3.93c-2.41-1.73-5.37-2.74-8.56-2.75
					c-0.07,0-0.15,0.01-0.22,0.01l0.01,4.78C15.31,5.11,15.34,5.11,15.37,5.11"/>
				<path class="st13" d="M9.62,6.94l-2.7-3.86c-2.58,1.85-4.54,4.5-5.5,7.59l4.45,1.39C6.53,9.97,7.86,8.18,9.62,6.94"/>
				<path class="st14" d="M20.67,15.15c-0.06-2.9-2.43-5.23-5.34-5.23c-2.96,0-5.35,2.4-5.35,5.35c0,2.95,2.4,5.35,5.35,5.35
					c1.46,0,2.77-0.58,3.74-1.53v1.65h1.61L20.67,15.15L20.67,15.15z M15.32,19.01c-2.07,0-3.74-1.68-3.74-3.74
					c0-2.07,1.67-3.74,3.74-3.74c2.05,0,3.71,1.65,3.74,3.69v0.1C19.03,17.37,17.37,19.01,15.32,19.01z"/>
			</g>
		</g>
	</g>
</g>
</svg>
