<svg xmlns="http://www.w3.org/2000/svg" width="175" viewBox="0 0 500 106"><g fill="#231916"><path d="M202.8 102.5c0 1.1.4 1.7 1.2 1.7.1 0 .3 0 .5-.1.2 0 .4-.1.5-.1.2 0 .4.1.5.2.1.1.2.3.2.5 0 .5-.3.8-1 .8H204.4l-1.1-.2c-.4-.1-.9-.1-1.4-.1-.6 0-1.1 0-1.5.1l-1.1.2H199c-.7 0-1-.3-1-.8s.2-.7.7-.7c.1 0 .3 0 .5.1.2 0 .4.1.5.1.8 0 1.1-.6 1.1-1.7v-9.2c0-1.1-.6-1.6-1.6-1.6h-.7c-1.1 0-1.6.5-1.6 1.6v.8l.1.8v.6c0 .9-.3 1.4-.9 1.4-.6 0-.8-.3-.8-1v-1c0-.7.1-1.2.1-1.4v-1.2c-.1-.8-.1-1.1-.1-1 0-.6.3-1 .9-1 .2 0 .7 0 1.5.1.1 0 .7 0 1.9.1h5c.3 0 .8 0 1.5-.1.6 0 1.1-.1 1.4-.1.8 0 1.1.3 1.1.9 0 .2 0 .4-.1.8 0 .4-.1.8-.1 1.3v.2c0 .2 0 .6.1 1.1.1.6.1 1 .1 1.2 0 .6-.3.9-.9.9-.6 0-.9-.4-.9-1.1 0-.3 0-.7.1-1.2 0-.5.1-.9.1-1.2 0-1-.6-1.6-1.8-1.6h-.6c-.6 0-.9.1-1.2.4-.2.2-.4.6-.4 1.2l-.1 1.6v7.7zM226.8 106c-2 0-3.6-.7-4.8-2.2-1.2-1.4-1.8-3.4-1.8-5.9 0-2.5.6-4.4 1.8-5.9 1.2-1.4 2.8-2.1 4.9-2.1 2 0 3.5.7 4.7 2.1 1.2 1.4 1.8 3.3 1.8 5.6 0 2.6-.6 4.6-1.8 6.1-1.2 1.5-2.8 2.3-4.8 2.3m0-14.4c-1.5 0-2.6.6-3.4 1.7-.8 1.1-1.2 2.7-1.2 4.7s.4 3.6 1.2 4.7c.8 1.1 1.9 1.7 3.3 1.7s2.5-.6 3.3-1.7c.8-1.2 1.2-2.8 1.2-4.8s-.4-3.6-1.2-4.7c-.6-1.1-1.7-1.6-3.2-1.6M249 97.8l6.4-5.4c.2-.1.2-.3.2-.4 0-.2-.1-.3-.4-.3h-.3c-.5.1-.9.1-1.2.1-.5 0-.8-.3-.8-.8s.3-.7 1-.7h.9l1.2.1c.5.1.9.1 1.2.1.5 0 1.2-.1 2-.2.4-.1.7-.1.9-.1.6 0 .9.3.9.8s-.3.8-.8.8h-.8c-.6 0-1.1.2-1.5.6l-4.3 3.6c-.2.2-.3.3-.3.4 0 .1.1.2.2.4l.3.5 3.6 4.9c1 1.3 1.7 2 2.2 2h.2c.4 0 .7-.1.7-.1.5 0 .8.3.8.8s-.3.8-.9.8l-1.1-.1c-.6-.1-1.2-.1-1.9-.1-.8 0-1.7 0-2.6.1-.6.1-.9.1-1 .1-.6 0-.8-.2-.8-.7 0-.5.3-.8.9-.8h.7c.6 0 .9.1 1 .1.4 0 .5-.1.5-.2s-.1-.3-.2-.4l-4.2-5.7c-.1-.1-.2-.2-.3-.2-.1 0-.2.1-.3.2l-2.4 2.1v3c.1.9.5 1.3 1.1 1.3.1 0 .3 0 .5-.1.2 0 .4-.1.6-.1.2 0 .4.1.5.2.1.1.2.3.2.5 0 .5-.3.8-1 .8h-.4l-1.3-.2c-.3 0-.8-.1-1.5-.1-.5 0-.9 0-1.2.1l-1.2.2h-.2c-.7 0-1-.3-1-.8s.2-.7.7-.7c.1 0 .3 0 .6.1.2 0 .3.1.5.1.8 0 1.1-.6 1.1-1.7v-9.1c0-1.1-.4-1.7-1.1-1.7-.1 0-.3 0-.5.1-.3 0-.5.1-.6.1-.5 0-.7-.2-.7-.7 0-.5.3-.8 1-.8h.3l1.1.1c.5.1.9.1 1.2.1.4 0 1 0 1.8-.1s1.3-.1 1.4-.1c.6 0 .9.3.9.8 0 .2-.1.4-.2.5-.1.1-.3.2-.5.2-.1 0-.3 0-.6-.1-.1 0-.3-.1-.5-.1-.5 0-.8.2-1 .6-.1.4-.2 1.3-.2 2.7v2.6zM278.5 101v-.4-.6l-4.5-7c-.3-.5-.5-.7-.5-.8-.2-.2-.5-.3-.8-.3-.2 0-.3 0-.4.1h-.4c-.7 0-1-.3-1-.8s.3-.8.9-.8c.2 0 .5 0 .9.1.7.1 1.4.2 2 .2.5 0 1.2-.1 2.1-.2.3 0 .6-.1.8-.1.6 0 .9.3.9.8s-.4.7-1.1.7h-1.3c-.2 0-.3 0-.3.2v.1s.1.1.1.2l3.5 5.9 3.5-5.9c.1-.1.1-.2.1-.4 0-.1-.1-.2-.3-.2l-.4.1-.6.1h-.6c-.6 0-.9-.3-.9-.8s.3-.8.9-.8c.2 0 .5 0 .8.1.9.1 1.6.2 2.2.2.6 0 1.4-.1 2.1-.2.3 0 .6-.1.8-.1.6 0 .9.3.9.8s-.3.7-.8.7h-.5c-.2 0-.4-.1-.5-.1-.4 0-.7.2-.9.5l-.3.5-4.5 7v1c0 1.5.1 2.5.2 2.9.1.4.4.6 1 .6.1 0 .3 0 .6-.1.2 0 .4-.1.5-.1.5 0 .7.2.7.7 0 .5-.3.8-1 .8H282.1l-1.2-.2c-.5-.1-.9-.1-1.4-.1-.5 0-.9 0-1.4.1l-1.2.2H276.6c-.7 0-1-.3-1-.8s.2-.7.7-.7c.1 0 .3 0 .5.1.2 0 .4.1.5.1.6 0 1-.4 1.1-1.2.1-.2.1-.9.1-2.1M305 106c-2 0-3.6-.7-4.8-2.2-1.2-1.4-1.8-3.4-1.8-5.9 0-2.5.6-4.4 1.8-5.9 1.2-1.4 2.8-2.1 4.9-2.1 2 0 3.5.7 4.7 2.1 1.2 1.4 1.7 3.3 1.7 5.6 0 2.6-.6 4.6-1.8 6.1-1 1.5-2.6 2.3-4.7 2.3m.1-14.4c-1.4 0-2.6.6-3.4 1.7-.8 1.1-1.2 2.7-1.2 4.7s.4 3.6 1.2 4.7c.8 1.1 1.9 1.7 3.3 1.7s2.5-.6 3.3-1.7c.8-1.2 1.2-2.8 1.2-4.8s-.4-3.6-1.2-4.7c-.6-1.1-1.8-1.6-3.2-1.6M18.2 44.9c-5.6 0-10.1-2-13.3-6.1-3.3-4-4.9-9.5-4.9-16.4C0 15.4 1.6 9.9 4.9 6c3.3-4 7.8-6 13.6-6 5.5 0 9.9 1.9 13.2 5.8 3.3 3.9 4.9 9.1 4.9 15.7 0 7.2-1.7 12.8-5 17.1-3.2 4.2-7.7 6.3-13.4 6.3m.2-40.4c-4.1 0-7.2 1.6-9.4 4.7s-3.4 7.5-3.4 13.1C5.6 28 6.7 32.5 9 35.6c2.2 3.1 5.4 4.7 9.4 4.7 3.9 0 7-1.6 9.3-4.9 2.3-3.3 3.4-7.7 3.4-13.3 0-5.6-1.1-10-3.3-13-2.2-3-5.3-4.6-9.4-4.6M55.8 2.8l-.3 12.3c1.7-1.6 3.2-2.7 4.6-3.3 1.4-.6 3-.9 5-.9 3.6 0 6.6 1 8.8 3.1 2.2 2.1 3.3 4.8 3.3 8.1v10.5c0 2.5 0 3.9.1 4.1.2 2.1.7 3.2 1.6 3.2.3 0 .8-.1 1.5-.4.3-.1.6-.1 1-.1 1.6 0 2.3.7 2.3 2.2 0 1.4-1 2.1-3 2.1-.5 0-1.4-.1-2.4-.2-1.8-.2-3.2-.3-4.3-.3-1.1 0-1.9 0-2.5.1-1.8.2-2.9.4-3.3.4-.8 0-1.4-.2-1.9-.7-.5-.4-.8-1-.8-1.7 0-.5.2-1 .7-1.4.4-.4 1-.6 1.6-.6.5 0 1 .1 1.6.3.4.1.7.2 1.1.2 1.3 0 1.9-1.4 2-4.1 0-.5 0-1.5.1-3v-6.1c0-4.3-.4-7.2-1.3-8.7-1.2-2.2-3.4-3.3-6.5-3.3-3.3 0-5.8 1.1-7.3 3.4-1.1 1.6-1.6 4.1-1.7 7.5V30c0 .2-.1.7-.3 1.3v1.2c0 2.4 0 3.8.1 4.2.2 2.1.8 3.1 1.9 3.1.3 0 .8-.1 1.5-.3.6-.2 1.1-.3 1.4-.3 1.4 0 2.1.7 2.1 2 0 1.5-.9 2.3-2.8 2.3-.6 0-1.5-.1-2.7-.2-1.6-.2-3-.2-4.2-.2-.7 0-1.7.1-3 .2-1.7.2-2.8.2-3.3.2-1.7 0-2.6-.8-2.6-2.3 0-1.3.8-2 2.4-2 .6 0 1 .1 1.2.2.7.2 1.3.3 1.5.3.7 0 1.2-.6 1.4-1.9.2-1.3.4-3.9.4-7.9V18.8c0-6.3-.1-10.3-.4-12-.3-1.7-.8-2.5-1.8-2.5-.3 0-.7.1-1.3.2-.6.1-1.1.2-1.4.2-1.4 0-2.2-.7-2.2-2 0-.6.3-1.1.8-1.5.5-.4 1.1-.6 1.8-.6.2 0 .9.1 2.2.2.8.1 1.7.1 2.6.1.4 0 .9 0 1.6-.2.7-.1 1.2-.2 1.5-.2 1 0 1.5.7 1.5 2.1v.2zM132.6 5.9l9.8 31.9 10.7-34c.5-1.8 1.5-2.7 2.8-2.7h.3c.4 0 1 .1 1.6.2.8.2 1.4.3 1.6.3.7.1 1.6.1 2.8.1 1.3 0 2.3-.1 3-.2l2.2-.4c.1 0 .4-.1.8-.1 1.9 0 2.9.7 2.9 2.2 0 1.4-.7 2-2 2-.3 0-.8 0-1.5-.1-.6 0-1.1-.1-1.4-.1-2.2 0-3.2 1.6-3.2 4.8v25.4c0 3.2 1.1 4.7 3.2 4.7.4 0 .9-.1 1.4-.2.9-.1 1.5-.1 1.6-.1 1.4 0 2 .7 2 2 0 1.5-.9 2.3-2.7 2.3.1 0-.2 0-.9-.1-2.9-.3-5.4-.5-7.4-.5s-3.9.1-5.7.4c-.8.1-1.4.2-2 .2-1.6 0-2.5-.7-2.5-2.1 0-1.4.9-2.2 2.6-2.2.4 0 .7 0 1 .1.9.1 1.5.2 1.7.2 1.5 0 2.5-1.6 2.9-4.7.1-.7.1-2.8.1-6.4 0-1.4 0-3.4.1-6.1v-17c0-.3-.1-.4-.3-.4-.1 0-.3.1-.4.4l-11.7 36c-.5 1.6-1.7 2.4-3.5 2.4-1.1 0-1.9-.2-2.4-.5s-.9-.9-1.2-1.9l-11.5-36c-.1-.3-.3-.4-.4-.4-.2 0-.3.1-.3.4l.4 29.2c0 3.1.9 4.6 2.5 4.6h2.7c1.6 0 2.5.7 2.5 2.1 0 1.4-.8 2.2-2.5 2.2-.3 0-.7 0-1.3-.1-.9-.1-1.9-.3-3-.4-.8-.1-1.9-.2-3.2-.2-2.3 0-3.8.1-4.5.2l-2.7.5c-.1 0-.2 0-.4.1h-.4c-1.9 0-2.9-.7-2.9-2.2 0-.6.2-1.1.6-1.5.4-.4.8-.6 1.4-.6.5 0 1 .1 1.6.2.6.1 1.1.2 1.4.2 2.2 0 3.2-1.6 3.2-4.7V9.8c0-3.2-1.1-4.7-3.2-4.7-.3 0-.8.1-1.5.2s-1.2.1-1.5.1c-1.3 0-2-.7-2-2 0-1.5.9-2.2 2.8-2.2.2 0 .4 0 .8.1l2.2.3c1.1.1 2.1.2 3.1.2.8 0 1.9-.1 3.3-.3 1.4-.2 2.4-.3 3-.3 1.6 0 2.7 1 3.3 3.1l.2 1.6zM190.9 18l7.3 21.3 7.7-21c.2-.6.3-1.1.3-1.4 0-.7-.5-1.1-1.5-1.1-.5 0-.9 0-1.2.1-.7.1-1.1.1-1.3.1-1.4 0-2.1-.7-2.1-2 0-1.4.9-2.1 2.7-2.1.3 0 .7 0 1.3.1l2.3.3c.6.1 1.2.1 1.9.1s1.8-.1 3.2-.3c1.4-.2 2.5-.3 3.2-.3 1.8 0 2.7.7 2.7 2.1 0 1.4-.7 2-2.1 2-.4 0-.7 0-.9-.1-.6-.1-.9-.2-1.1-.2-.8 0-1.6 1.1-2.5 3.2l-8.6 21.5c-1.9 4.8-3.7 8.2-5.4 10.4-2.9 3.7-6.5 5.5-10.8 5.5-2.6 0-4.7-.6-6.5-1.9-1.8-1.3-2.6-2.9-2.6-4.7 0-1.3.4-2.4 1.1-3.2.8-.8 1.8-1.2 3-1.2 1 0 1.8.3 2.4.9.6.6.9 1.3.9 2.1 0 1.3-.6 2.2-1.8 2.6.6.9 1.8 1.4 3.6 1.4 2.2 0 4.3-.8 6-2.5 1.8-1.7 2.7-3.5 2.7-5.6 0-1.1-.6-3-1.7-5.9l-7-17.5-.8-2c-.7-1.9-1.5-2.8-2.5-2.8-.3 0-.7.1-1.4.2s-1.1.2-1.3.2c-1.5 0-2.2-.7-2.2-2 0-1.4 1-2.1 2.9-2.1.6 0 1.1 0 1.5.1l2.5.4h.5c.3 0 .6.1.8.1 1.5 0 3.1-.1 4.9-.3 1.3-.2 2.2-.2 2.6-.2 1.8 0 2.7.7 2.7 2.1 0 1.4-.8 2.1-2.4 2.1-.3 0-.7 0-1.2-.1s-1-.1-1.2-.1c-.6 0-.9.3-.9.9 0-.1.1.3.3.8M265.6 0c4.2 0 8.1 1.6 11.5 4.7-.2-.6-.3-.9-.3-1-.1-.8-.1-1.3-.1-1.4 0-1.4.7-2.1 2.1-2.1 1.5 0 2.3.9 2.3 2.7 0 .6 0 1-.1 1.3l-.5 3c-.1.9-.2 1.8-.2 2.8 0 .8.1 2.5.2 5.1v.6c0 1.9-.8 2.9-2.3 2.9-1.5 0-2.2-1-2.2-3.1v-1.9c0-2.9-1-5.2-2.9-6.9-1.9-1.7-4.5-2.5-7.7-2.5-4.1 0-7.3 1.6-9.6 4.7-2.3 3.2-3.5 7.5-3.5 13 0 5.9 1.2 10.4 3.6 13.7 2.4 3.3 5.7 4.9 9.9 4.9 3.3 0 5.8-1 7.5-2.8 1.8-1.9 2.7-4.6 2.7-8.1 0-1.4-.2-2.4-.7-3-.5-.6-1.3-.9-2.6-.9-.3 0-.8 0-1.4.1-.6 0-1.1.1-1.5.1-2 0-3-.7-3-2.1 0-1.5.9-2.2 2.6-2.2.6 0 1.2 0 1.8.1 2.7.4 4.8.6 6.4.6 2.1 0 4.3-.2 6.6-.6.5-.1 1.1-.1 1.7-.1 1.7 0 2.5.7 2.5 2.1 0 .6-.2 1.1-.7 1.5-.4.4-1 .6-1.6.6H284c-1.9 0-2.8 2.1-2.8 6.1v5c0 1.1 0 2.1.1 2.9.1.9.1 1.6.1 2.1 0 1.7-.8 2.6-2.3 2.6-1.5 0-2.2-.7-2.2-2.2l.1-1.5c0-.4.1-1 .1-2-1 1.3-1.7 2.2-2.3 2.7-2.4 2.2-5.9 3.3-10.2 3.3-5.5 0-9.8-2-13.2-6.1-3.3-4-5-9.3-5-15.9 0-7 1.7-12.6 5.1-16.7 3.7-4 8.3-6.1 14.1-6.1M305.6 17.1v19.6c0 2.1.6 3.2 1.7 3.2.3 0 .8-.1 1.6-.3.5-.1.9-.1 1-.1 1.4 0 2.1.7 2.1 2.1 0 1.4-.9 2.1-2.6 2.1-.7 0-1.8-.1-3.2-.3-1.5-.2-2.6-.2-3.4-.2-.7 0-1.7.1-3 .2-1.3.2-2.3.3-3 .3h-.3c-1.8 0-2.7-.8-2.7-2.3 0-1.3.7-2 2.2-2h.5c.2.1.4.1.6.1 1.1.2 1.7.4 1.9.4.8 0 1.3-.3 1.4-1 .2-.7.3-2.4.4-5.1l.1-4.4V8.3c0-1.3-.1-2.1-.2-2.5-.3-1-.9-1.5-1.8-1.5-.1 0-.7.1-1.6.3-.5.1-.8.1-1.1.1-1.4 0-2.2-.7-2.2-2 0-1.4.8-2.1 2.5-2.1.5 0 .9 0 1.2.1l1.5.2c.7.1 1.2.1 1.7.1.4 0 1.1-.1 1.9-.2.8-.1 1.5-.2 1.9-.2 1 0 1.4.6 1.4 1.8v.9c-.4 3.3-.5 7.9-.5 13.8M373.8 10.9c2.8 0 5.2.7 7.1 2.2v-.3c0-1.6.7-2.3 2-2.3 1.4 0 2.1.7 2.1 2 0 .2 0 .9-.1 1.9-.1.8-.2 1.7-.2 2.5 0 .5.1 1.2.2 2.2.1 1 .2 1.7.2 2.2 0 1.6-.7 2.4-2.1 2.4-1.3 0-2-.7-2-2v-2.1c0-1.3-.8-2.3-2.2-3.3-1.4-.9-3.1-1.3-5-1.3s-3.6.5-4.9 1.5c-1.3 1-2 2.2-2 3.7 0 2.7 1.9 4.3 5.6 4.8l3.7.5c7.2 1 10.8 3.9 10.8 8.9 0 3-1.2 5.5-3.5 7.3-2.3 1.9-5.4 2.8-9.1 2.8-3.5 0-6.5-1-9.1-3v1.2c0 1.5-.7 2.3-2.2 2.3-1.6 0-2.3-.9-2.3-2.6 0 .3.1-.8.4-3.3.1-.6.1-1.2.1-1.8 0-1-.1-2-.3-2.8-.2-.9-.3-1.6-.3-2.1 0-1.5.7-2.2 2-2.2.9 0 1.4.2 1.7.6.2.4.4 1.5.4 3.3 0 1.8 1 3.3 2.8 4.4 1.9 1.1 4.2 1.7 7.1 1.7 2.1 0 3.8-.5 5.1-1.6 1.4-1 2-2.4 2-4 0-2.9-2.3-4.5-6.8-5-4.4-.5-7.7-1.3-9.9-2.6-2.3-1.2-3.4-3.4-3.4-6.5 0-2.9 1.1-5.3 3.3-7.2 2.3-1.5 5.2-2.4 8.8-2.4M410.8 10.9c2.8 0 5.2.7 7.1 2.2v-.3c0-1.6.7-2.3 2-2.3 1.4 0 2.1.7 2.1 2 0 .2 0 .9-.1 1.9-.1.8-.2 1.7-.2 2.5 0 .5.1 1.2.2 2.2.1 1 .2 1.7.2 2.2 0 1.6-.7 2.4-2.1 2.4-1.3 0-2-.7-2.1-2v-2.1c0-1.3-.8-2.3-2.2-3.3-1.4-.9-3.1-1.3-5-1.3s-3.6.5-4.9 1.5c-1.3 1-2 2.2-2 3.7 0 2.7 1.9 4.3 5.6 4.8l3.7.5c7.2 1 10.8 3.9 10.8 8.9 0 3-1.2 5.5-3.5 7.3-2.3 1.9-5.3 2.8-9.1 2.8-3.5 0-6.5-1-9.1-3v1.2c0 1.5-.7 2.3-2.1 2.3-1.6 0-2.3-.9-2.3-2.6 0 .3.1-.8.4-3.3.1-.6.1-1.2.1-1.8 0-1-.1-2-.3-2.8-.2-.9-.3-1.6-.3-2.1 0-1.5.7-2.2 2-2.2.9 0 1.4.2 1.7.6.2.4.4 1.5.4 3.3 0 1.8 1 3.3 2.8 4.4 1.9 1.1 4.2 1.7 7.1 1.7 2.1 0 3.8-.5 5.1-1.6 1.3-1 2-2.4 2-4 0-2.9-2.3-4.5-6.8-5-4.3-.5-7.7-1.3-9.9-2.6-2.3-1.2-3.4-3.4-3.4-6.5 0-2.9 1.1-5.3 3.3-7.2s5.2-2.4 8.8-2.4M463 24.9c0 1.6-.1 2.6-.3 2.9-.2.4-.8.5-1.8.5h-20.1c-.6 0-.9.1-1.1.2-.2.1-.3.4-.3.7 0 3.2 1 5.8 2.9 7.9 1.9 2.1 4.3 3.2 7.1 3.2 1.9 0 3.6-.5 5.1-1.5 1.5-1 2.5-2.3 3-3.9l.6-1.8c.3-1 1-1.5 2.1-1.5 1.6 0 2.3.8 2.3 2.4 0 2.7-1.4 5.2-4.2 7.3-2.8 2.1-6 3.2-9.5 3.2-4.4 0-8-1.5-10.6-4.5-2.6-3-3.9-6.9-3.9-12s1.4-9.3 4.2-12.5c2.8-3.2 6.4-4.8 10.9-4.8 4 0 7.2 1.3 9.8 4 2.6 2.8 3.8 6.2 3.8 10.2m-23-1.6c0 .6.5.9 1.4.9h15.1c.9 0 1.3-.3 1.3-.9 0-2.2-.8-4.2-2.5-5.8-1.7-1.6-3.7-2.5-6-2.5-2.4 0-4.5.8-6.5 2.5-1.8 1.8-2.8 3.7-2.8 5.8M486.9 10.9c2.8 0 5.2.7 7.1 2.2v-.3c0-1.6.7-2.3 2-2.3 1.4 0 2.1.7 2.1 2 0 .2 0 .9-.1 1.9-.1.8-.2 1.7-.2 2.5 0 .5.1 1.2.2 2.2.1 1 .2 1.7.2 2.2 0 1.6-.7 2.4-2.1 2.4-1.3 0-2-.7-2.1-2v-2.1c0-1.3-.8-2.3-2.2-3.3-1.4-.9-3.1-1.3-5-1.3s-3.6.5-4.9 1.5c-1.3 1-2 2.2-2 3.7 0 2.7 1.9 4.3 5.6 4.8l3.7.5c7.2 1 10.8 3.9 10.8 8.9 0 3-1.2 5.5-3.5 7.3-2.3 1.9-5.4 2.8-9.1 2.8-3.5 0-6.5-1-9.1-3v1.2c0 1.5-.7 2.3-2.2 2.3-1.6 0-2.3-.9-2.3-2.6 0 .3.1-.8.4-3.3.1-.6.1-1.2.1-1.8 0-1-.1-2-.3-2.8-.2-.9-.3-1.6-.3-2.1 0-1.5.7-2.2 2-2.2.9 0 1.4.2 1.7.6.2.4.4 1.5.4 3.3 0 1.8 1 3.3 2.8 4.4 1.9 1.1 4.2 1.7 7.1 1.7 2.1 0 3.8-.5 5.1-1.6 1.4-1 2-2.4 2-4 0-2.9-2.3-4.5-6.8-5-4.3-.5-7.7-1.3-9.9-2.6-2.3-1.2-3.4-3.4-3.4-6.5 0-2.9 1.1-5.3 3.3-7.2s5.3-2.4 8.9-2.4M349.9 40.2c-.1.1-.5.2-.9.2-1.2 0-1.9-.7-2.2-2.2-.1-.4-.1-1.6-.1-3.6V21.9c0-7.4-3.8-11-11.5-11-3.3 0-6.2.8-8.5 2.5-2.4 1.7-3.5 3.7-3.5 6.1 0 1.1.4 2 1.1 2.8.7.8 1.7 1.1 2.8 1.1.9 0 1.7-.3 2.3-.8.6-.5.9-1.2.9-2.1 0-1-.3-1.7-.9-2.2-.4-.3-.6-.5-.6-.6 0-.5.3-.9.9-1.3 1.7-1.1 3.4-1.6 5.3-1.6 2.2 0 3.8.5 5 1.5 1.2 1 1.8 2.3 1.8 4.1 0 1.8-.5 3-1.6 3.7-1.1.7-3.4 1.2-6.9 1.6-2.5.3-4.1.5-5 .7-.8.2-1.8.6-2.9 1.2-3 1.6-4.5 4.2-4.5 7.7 0 2.8 1 5.1 3.1 6.8 2.1 1.7 4.8 2.5 8.2 2.5 4.6 0 8-1.6 10.1-4.7.8 3 2.9 4.5 6.4 4.5.4 0 .7 0 1.1-.1 2-.3 3.2-2 2.3-3.5-.4-.9-1.5-.9-2.2-.6m-8.2-8.4c0 2.7-.9 4.8-2.5 6.3s-3.8 2.3-6.7 2.3c-2 0-3.6-.5-4.7-1.4-1.2-.9-1.7-2.2-1.7-3.8 0-3.1 2.4-4.8 7.2-5.3 2.7-.2 4.5-.5 5.5-.9 1-.3 2-.9 2.9-1.8v4.6z"/></g></svg>