<svg height="60" viewBox="0 0 44 60" width="44" xmlns="http://www.w3.org/2000/svg" xmlns:xlink="http://www.w3.org/1999/xlink"><mask id="a" fill="#fff"><path d="m0 .0001h43.5429v59.9999h-43.5429z" fill="#fff" fill-rule="evenodd"/></mask><g fill="#0085cc" fill-rule="evenodd"><path d="m1.8339 46.1111v-40.144c0-2.279 1.854-4.134 4.133-4.134h35.298c.245 0 .445.2.445.445v42.163h-35.743c-1.603 0-3.06.637-4.133 1.67zm10.257 7.196v3.97l-1.597-1.168c-.161-.118-.352-.177-.541-.177-.191 0-.381.059-.542.177l-1.597 1.168v-3.97zm31.452-7.949v-43.08c0-1.256-1.022-2.278-2.278-2.278h-35.298c-3.29 0-5.967 2.677-5.967 5.967v45.502c0 3.29 2.677 5.967 5.967 5.967h.014v1.647c0 .345.194.661.501.818.308.156.678.126.957-.078l2.513-1.838 2.514 1.838c.16.117.35.1770325.541.1770325.142 0 .284-.0330325.415-.0990325.308-.157.502-.473.502-.818v-1.647h27.341c1.256 0 2.278-1.022 2.278-2.278v-5.358c0-.506-.411-.917-.917-.917s-.917.411-.917.917v5.358c0 .245-.199.444-.445.444h-27.34v-2.295h23.659c.507 0 .917-.411.917-.917s-.41-.916-.917-.916h-31.883c-.506 0-.917.41-.917.916s.411.917.917.917h.281v2.295h-.014c-2.279 0-4.133-1.854-4.133-4.133v-1.061c0-2.279 1.854-4.133 4.133-4.133h36.659c.507 0 .917-.411.917-.917z" mask="url(#a)"/><path d="m37.5833 47.9012h-5.238-1.942-24.636c-.506 0-.917.411-.917.917s.411.917.917.917h24.636 1.942 5.238c.506 0 .917-.411.917-.917s-.411-.917-.917-.917"/><path d="m12.146 30.7693h-1.626c-.354 0-.458.32-.458.641 0 .32.092.652.458.652h.882c.263 0 .332.092.32.378-.023.55-.194 1.557-1.511 1.557-1.465 0-1.626-1.786-1.626-2.794 0-1.201.195-2.781 1.626-2.781.767 0 1.111.366 1.282 1.019.08.297.275.423.916.423.584 0 .733-.32.664-.687-.264-1.35-1.259-2.094-2.862-2.094-2.335.125-3.193 1.785-3.193 4.12 0 2.29.904 4.133 3.25 4.133 2.232 0 3.022-1.614 2.942-3.583-.023-.618-.229-.984-1.064-.984"/><path d="m19.5055 27.163c-.378 0-.755.115-.755.527v4.784c0 .871-.493 1.5-1.386 1.5-.892 0-1.373-.629-1.373-1.5v-4.784c0-.412-.378-.527-.756-.527s-.755.115-.755.527v4.647c0 2.129 1.202 3.011 2.884 3.011 1.694 0 2.896-.882 2.896-3.011v-4.647c0-.412-.377-.527-.755-.527"/><path d="m22.5038 27.163c-.378 0-.755.115-.755.527v7.097c0 .424.377.538.755.538s.767-.114.767-.538v-7.097c0-.412-.389-.527-.767-.527"/><path d="m27.4601 33.8368h-.996c-.126 0-.195-.046-.195-.195v-4.865c0-.148.069-.194.195-.194h.996c1.247 0 1.614 1.511 1.614 2.633 0 1.121-.332 2.621-1.614 2.621m0-6.628h-1.58c-.583 0-1.121.149-1.121 1.008v5.986c0 .87.538 1.019 1.121 1.019h1.58c2.278 0 3.17-1.877 3.17-4.006 0-2.13-.915-4.007-3.17-4.007"/><path d="m33.4921 28.5826h2.553c.389 0 .481-.343.481-.687 0-.343-.103-.686-.481-.686h-3.148c-.573 0-1.122.148-1.122 1.007v5.998c0 .859.549 1.007 1.122 1.007h3.148c.377 0 .481-.343.481-.686s-.092-.687-.481-.687h-2.553c-.137 0-.195-.046-.195-.195v-1.889h2.324c.378 0 .481-.343.481-.686 0-.344-.103-.687-.481-.687h-2.324v-1.614c0-.149.058-.195.195-.195"/><path d="m31.0817 19.3143c-3.538 0-6.417-2.879-6.417-6.417s2.879-6.417 6.417-6.417c3.539 0 6.417 2.879 6.417 6.417s-2.878 6.417-6.417 6.417m0-14.668c-4.549 0-8.25 3.702-8.25 8.251s3.701 8.25 8.25 8.25 8.251-3.701 8.251-8.25-3.702-8.251-8.251-8.251"/><path d="m19.7191 6.7506-.854.854c-1.053-1.26-2.464-2.183-4.061-2.64-2.119-.606-4.348-.35-6.274.72-1.927 1.07-3.321 2.826-3.927 4.945-1.25 4.374 1.291 8.95 5.666 10.201.754.216 1.515.318 2.264.318 3.59 0 6.901-2.365 7.936-5.984.161-.562.262-1.141.301-1.719.009-.133.014-.328.014-.549 0-.505-.41-.916-.917-.916s-.917.411-.917.916c0 .176-.003.334-.01.425-.03.45-.109.901-.234 1.339-.973 3.402-4.532 5.379-7.934 4.407-3.402-.973-5.379-4.532-4.406-7.934.471-1.648 1.556-3.014 3.054-3.846s3.231-1.031 4.879-.56c1.296.37 2.433 1.135 3.262 2.181l-5.278 5.278-2.51-2.509c-.358-.358-.939-.358-1.297 0s-.358.938 0 1.296l3.158 3.158c.18.179.414.269.649.269.234 0 .469-.089.648-.269l8.085-8.084c.358-.359.358-.939 0-1.297-.359-.358-.939-.358-1.297 0"/><path d="m35.0079 9.1414c-.359-.358-.939-.358-1.297 0l-2.62 2.62-2.62-2.62c-.358-.358-.938-.358-1.296 0-.359.358-.359.938 0 1.297l2.62 2.62-2.62 2.62c-.359.358-.359.938 0 1.296.179.179.413.269.648.269s.469-.09.648-.269l2.62-2.62 2.62 2.62c.179.179.414.269.649.269.234 0 .469-.09.648-.269.358-.358.358-.938 0-1.296l-2.62-2.62 2.62-2.62c.358-.359.358-.939 0-1.297"/></g></svg>