<svg height="48" viewBox="0 0 48 48" width="48" xmlns="http://www.w3.org/2000/svg" xmlns:xlink="http://www.w3.org/1999/xlink"><mask id="a" fill="#fff"><path d="m0 .574h30.4205371v30.3712521h-30.4205371z" fill="#fff" fill-rule="evenodd"/></mask><mask id="b" fill="#fff"><path d="m.9991 0h24.0019v23.9985h-24.0019z" fill="#fff" fill-rule="evenodd"/></mask><mask id="c" fill="#fff"><path d="m.169.4998h24.8305148v26.5002h-24.8305148z" fill="#fff" fill-rule="evenodd"/></mask><g fill="#0085cc" fill-rule="evenodd"><path d="m28.3197 9.268c-1.06 1.06-1.966 1.678-2.9 1.988-1.486.496-2.668 1.678-3.164 3.164-.312.934-.928 1.84-1.946 2.856l-10.606 10.606c-.72.72-1.68 1.118-2.702 1.118-1.028 0-1.986-.398-2.708-1.12l-1.176-1.174c-.72-.722-1.118-1.682-1.118-2.702 0-1.028.398-1.988 1.12-2.708l10.606-10.606c1.016-1.016 1.924-1.634 2.856-1.944 1.486-.496 2.668-1.678 3.164-3.164.31-.934.93-1.842 1.948-2.86.186-.186.422-.19.576-.04l6.05 6.05c.148.148.148.388 0 .536m1.41-1.948-6.05-6.05c-.462-.464-1.068-.696-1.678-.696-.612 0-1.224.232-1.69.7-1.28 1.28-2.054 2.438-2.466 3.676-.296.89-1.006 1.6-1.898 1.898-1.238.412-2.394 1.184-3.638 2.428l-10.606 10.606c-1.098 1.098-1.704 2.56-1.704 4.114 0 1.562.606 3.024 1.704 4.124l1.176 1.176c2.204 2.204 6.044 2.194 8.238 0l10.606-10.606c1.244-1.242 2.016-2.398 2.428-3.638.296-.89 1.006-1.6 1.898-1.898 1.238-.412 2.394-1.184 3.638-2.428.97-.97.97-2.48.042-3.406" mask="url(#a)" transform="translate(0 17)"/><path d="m24.7076 2.294-2-2c-.194-.194-.45-.294-.708-.294-.152 0-.304.034-.448.106l-6.894 3.448c-1.022.51-1.658 1.54-1.658 2.682v1.35l-11.708 11.708c-.39.39-.39 1.024 0 1.414s1.024.39 1.414 0l12-12c.188-.188.294-.442.294-.708v-1.764c0-.382.212-.724.552-.894l6.25-3.126.98.98-3.126 6.25c-.168.342-.51.554-.892.554h-1.764c-.266 0-.52.106-.708.292l-12 12c-.39.39-.39 1.024 0 1.414s1.024.39 1.414 0l11.708-11.706h1.35c1.144 0 2.172-.636 2.684-1.658l3.448-6.894c.192-.384.118-.85-.188-1.154" mask="url(#b)" transform="translate(23)"/><path d="m22.9075 15.7778-4.394-2.636c-.292-.176-.654-.19-.962-.038l-.422.21c-2.548 1.278-4.13 3.838-4.13 6.686 0 .352.184.676.486.858l5.28 3.168c-1.136.624-2.382.958-3.668.974-1.886.052-3.95-.892-5.474-2.518-1.87-1.994-2.702-3.822-2.618-5.75.084-1.912-.736-3.876-2.248-5.386l-2.052-2.054c.112-.054.226-.1.344-.138 1.24-.412 2.396-1.184 3.64-2.428.532-.532.772-1.222.728-1.892l4.296 4.296c.26.26.64.358.996.25.856-.26 1.582-.38 2.29-.38 2.226 0 4.294.892 5.822 2.512 1.13 1.2 1.846 2.674 2.086 4.266m-.632-5.636c-1.882-1.998-4.534-3.142-7.276-3.142-.736 0-1.474.096-2.284.302l-6.508-6.508c-.196-.196-.452-.294-.708-.294s-.512.098-.708.292l-1 1c-.39.39-.39 1.024 0 1.414l1.526 1.526c.126.126.126.41 0 .536-1.06 1.06-1.966 1.678-2.9 1.988-.732.244-1.408.662-1.956 1.21-.39.39-.39 1.022 0 1.414l2.878 2.878c1.116 1.116 1.722 2.532 1.664 3.886-.106 2.468.926 4.826 3.158 7.204 1.91 2.036 4.52 3.172 6.962 3.1522597 2.224-.0282597 4.342-.8042597 6.128-2.2462597.254-.206.392-.522.37-.848-.024-.326-.204-.62-.484-.788l-6.112-3.666c.182-1.836 1.268-3.45 2.93-4.31l5.472 3.282c.306.184.682.19.994.02.304-.166.54-.496.56-.84.164-2.788-.796-5.438-2.706-7.462" mask="url(#c)" transform="translate(23 21)"/><path d="m22.164 17.58c-.674-.052-1.346.186-1.852.694-1.28 1.28-2.054 2.438-2.466 3.676-.04.118-.084.232-.138.344l-2.188-2.188c-1.36-1.358-3.298-2.106-5.46-2.106h-.036c-4.24 0-7.706-3.28-8.002-7.422l5.464 3.28c.294.176.656.19.962.038l.422-.21c2.546-1.276 4.13-3.838 4.13-6.686 0-.352-.184-.676-.486-.858l-5.746-3.448c1.012-.454 2.102-.692 3.216-.694h.01c1.93 0 3.904.932 5.42 2.56 1.842 1.978 2.662 3.79 2.58 5.706s.74 3.884 2.254 5.398zm4.046 1.212-4.544-4.544c-1.12-1.12-1.728-2.542-1.67-3.898.106-2.452-.914-4.792-3.116-7.154-1.894-2.03-4.404-3.196-6.886-3.196h-.014c-2.064.004-4.056.648-5.764 1.864-.274.196-.432.516-.418.854.012.336.196.644.484.818l6.69 4.014c-.182 1.838-1.268 3.45-2.93 4.31l-6.414-3.848c-.292-.174-.646-.19-.952-.042-.304.148-.512.438-.556.772l-.032.236c-.044.336-.088.672-.088 1.022 0 5.514 4.486 10 10 10 1.65.088 3.118.534 4.106 1.52l3.016 3.016c.39.39 1.022.39 1.414 0 .548-.546.966-1.222 1.21-1.956.31-.932.928-1.84 1.948-2.86.186-.186.422-.19.576-.04l1.526 1.526c.39.39 1.024.39 1.414 0l1-1c.39-.39.39-1.024 0-1.414z"/></g></svg>