<svg height="61" viewBox="0 0 58 61" width="58" xmlns="http://www.w3.org/2000/svg" xmlns:xlink="http://www.w3.org/1999/xlink"><mask id="a" fill="#fff"><path d="m.00029654.00009185h57.54170346v60.32080815h-57.54170346z" fill="#fff" fill-rule="evenodd"/></mask><path d="m49.7339 5.7989-3.215-1.816c.655-.207 1.313-.408 1.978-.593l2.68 1.804c-.487.196-.971.393-1.443.605m-3.92 2.053-4.581-1.921c.905-.384 1.823-.743 2.751-1.083l3.574 2.019c-.594.314-1.176.642-1.744.985m-4.03 2.851-5.74-2.274c.884-.481 1.784-.937 2.696-1.375l5.054 2.12c-.692.486-1.362.996-2.01 1.529m-3.821 3.701-7.517-2.503c1.099-.767 2.223-1.505 3.378-2.2l6.276 2.486c-.746.705-1.458 1.443-2.137 2.217m-3.874 5.418-9.917-2.886c1.368-1.261 2.802-2.455 4.29-3.588l8.143 2.712c-.909 1.182-1.747 2.438-2.516 3.762m-2.417 4.917c-.256.631-.496 1.278-.726 1.935l-13.362-2.567c1.521-1.956 3.166-3.817 4.926-5.572l10.6 3.085c-.513 1.006-.999 2.038-1.438 3.119m-2.812 10.278-16.915-2.153c1.27-2.426 2.716-4.754 4.311-6.976l14.07 2.703c-.61 2.036-1.096 4.183-1.466 6.426m-.846 9.721-20.215-1.656c.855-2.864 1.92-5.647 3.198-8.322l17.57 2.236c-.323 2.477-.512 5.059-.553 7.742m.433 9.747-22.747-.771c.292-2.953.816-5.848 1.55-8.671l20.762 1.701c.027 2.507.169 5.089.435 7.741m29.062-50.281c-.142-.534-.69-.852-1.222-.711-.959.253-1.885.542-2.796.848l-2.395-1.613c.658-.152 1.316-.303 1.982-.434.542-.106.895-.632.789-1.174-.107-.541-.63-.898-1.173-.789-1.296.254-2.569.561-3.832.893l-1.564-1.053c-.458-.309-1.079-.187-1.388.271s-.187 1.079.271 1.388l.166.112c-.732.226-1.459.462-2.178.714l-1.543-.872c-.481-.271-1.091-.102-1.363.379-.271.481-.102 1.091.379 1.362l.08.045c-1.022.407-2.027.842-3.019 1.3l-1.763-.74c-.51-.212-1.096.027-1.309.536-.214.509.026 1.095.535 1.309l.147.061c-.898.463-1.783.945-2.652 1.449l-1.585-.628c-.512-.202-1.095.049-1.298.562-.204.513.048 1.094.562 1.298l.177.07c-1.167.742-2.307 1.518-3.417 2.333l-1.58-.526c-.526-.177-1.09.109-1.264.633-.175.524.108 1.09.632 1.265l.291.096c-1.469 1.171-2.876 2.408-4.225 3.702l-1.822-.53c-.527-.153-1.085.15-1.239.681-.155.53.15 1.085.68 1.239l.76.221c-1.767 1.827-3.417 3.758-4.939 5.785l-1.907-.366c-.54-.104-1.066.251-1.17.794-.105.542.251 1.066.793 1.17l.986.189c-1.58 2.271-2.997 4.653-4.252 7.124l-2.118-.27c-.543-.065-1.049.318-1.119.866-.069.549.318 1.049.866 1.119l1.443.183c-1.259 2.712-2.312 5.525-3.154 8.42l-2.278-.187c-.553-.05-1.033.365-1.079.915-.045.551.365 1.034.915 1.078l1.91.157c-.725 2.856-1.246 5.783-1.535 8.768l-2.661-.091c-.556-.03-1.014.415-1.033.966-.019.552.413 1.015.965 1.033l2.577.088c-.076 1.219-.129 2.444-.129 3.679 0 .552.448 1 1 1s1-.448 1-1c0-1.212.053-2.414.129-3.611l23.128.784c.112.922.235 1.849.376 2.786.074.496.501.852.987.852.049 0 .099-.004.15-.012.546-.081.922-.59.84-1.137-.117-.778-.225-1.592-.329-2.421l2.654.09c.011.001.023.001.034.001.537 0 .98-.426.999-.967.019-.551-.414-1.014-.966-1.033l-2.95-.1c-.249-2.413-.419-4.983-.456-7.645l2.089.171c.028.002.055.003.082.003.516 0 .953-.395.996-.918.045-.55-.365-1.033-.915-1.078l-2.254-.185c.032-2.513.195-5.083.528-7.655l1.96.25c.043.005.086.008.128.008.496 0 .926-.369.991-.874.069-.548-.318-1.049-.866-1.118l-1.921-.245c.351-2.122.825-4.233 1.455-6.3l2.266.435c.063.012.126.018.189.018.47 0 .889-.332.981-.811.104-.542-.251-1.067-.794-1.171l-2.009-.386c.595-1.668 1.305-3.294 2.128-4.869l1.585.461c.093.028.187.041.28.041.433 0 .832-.284.959-.721.155-.531-.15-1.085-.68-1.24l-1.139-.331c.763-1.269 1.613-2.494 2.558-3.666l1.556.518c.105.035.211.052.316.052.419 0 .809-.266.948-.685.175-.524-.108-1.09-.632-1.265l-.771-.256c.669-.722 1.371-1.423 2.125-2.092l1.291.511c.12.048.245.071.367.071.399 0 .775-.24.93-.632.204-.514-.047-1.095-.561-1.298l-.26-.103c.661-.505 1.358-.986 2.078-1.451l1.261.528c.127.053.257.078.386.078.391 0 .762-.231.923-.613.199-.475-.007-1.005-.447-1.249.499-.273.998-.545 1.523-.798l.998.563c.155.088.324.13.491.13.349 0 .688-.183.871-.509.22-.389.14-.853-.149-1.163.439-.178.904-.335 1.36-.5l.847.57c.172.115.366.17.558.17.322 0 .637-.154.83-.441.219-.324.212-.726.033-1.045.439-.131.865-.272 1.319-.391.534-.142.852-.689.711-1.223" fill="#0085cc" fill-rule="evenodd" mask="url(#a)"/></svg>