<svg height="60" viewBox="0 0 47 60" width="47" xmlns="http://www.w3.org/2000/svg" xmlns:xlink="http://www.w3.org/1999/xlink"><mask id="a" fill="#fff"><path d="m0 0h46.552v59.9998h-46.552z" fill="#fff" fill-rule="evenodd"/></mask><g fill="#0085cc" fill-rule="evenodd"><path d="m2.069 40.3448v-37.318c0-.224.034-.958.479-.958h29.581c-.034.13-.06.265-.06.405v11.781c-.55-.496-1.271-.807-2.069-.807-.572 0-1.034.464-1.034 1.035s.462 1.034 1.034 1.034c.571 0 1.035.465 1.035 1.035v4.138c0 1.241.56 2.344 1.429 3.103-.869.76-1.429 1.862-1.429 3.104v4.138c0 .57-.464 1.034-1.035 1.034-.572 0-1.034.464-1.034 1.035s.462 1.034 1.034 1.034c1.711 0 3.103-1.392 3.103-3.103v-4.138c0-1.141.928-2.069 2.069-2.069.573 0 1.035-.464 1.035-1.035s-.462-1.034-1.035-1.034c-1.141 0-2.069-.928-2.069-2.069v-4.138c0-.798-.311-1.519-.806-2.069h11.781c.14 0 .274-.026.405-.06 0 .015.001.022.001.037v25.885zm.479 17.586c-.073 0-.14-.026-.205-.05-.16-.077-.274-.238-.274-.429v-15.038h42.414v15.038c0 .191-.114.352-.274.429-.066.024-.132.05-.205.05zm31.59-54.243 8.726 8.726h-8.726zm11.844 8.919-1.408-1.408-9.832-9.832-.001-.001-.798-.798c-.367-.366-.854-.568-1.372-.568h-30.023c-1.228 0-2.548.948-2.548 3.027v37.318 17.107.479c0 .866.87 1.709 1.899 1.975.053.015.104.034.158.045.161.032.325.049.491.049h41.456c.165 0 .33-.017.491-.049.054-.011.105-.03.157-.045 1.03-.266 1.9-1.109 1.9-1.975v-.479-17.107-25.885c0-.793-.096-1.38-.57-1.853z" mask="url(#a)"/><path d="m19.5041 53.2034c-.02.461-.177.79-.474.983-.297.192-.696.289-1.195.289-.197 0-.409-.022-.636-.07-.226-.048-.444-.101-.651-.162-.207-.062-.398-.128-.573-.198-.174-.07-.309-.14-.403-.205l-.721 1.145c.188.142.419.269.693.382.273.113.559.214.856.304.296.09.584.155.862.198.279.042.521.064.729.064.413 0 .818-.04 1.209-.12s.737-.221 1.04-.424c.301-.203.541-.472.721-.806.179-.334.269-.748.269-1.237v-8.119h-1.726z"/><path d="m28.5341 50.7559c-.325-.236-.677-.437-1.054-.601-.378-.165-.726-.334-1.047-.509-.322-.175-.59-.377-.806-.608-.217-.232-.325-.536-.325-.913 0-.151.038-.309.113-.473.075-.165.179-.314.311-.446.132-.133.283-.242.454-.332.17-.09.348-.144.537-.163.34-.028.618-.033.835-.014.216.019.391.051.524.099.131.048.234.094.304.142.07.047.134.085.191.112.01-.009.037-.056.085-.141.047-.085.104-.192.17-.319.065-.127.136-.264.212-.41.074-.146.142-.28.197-.403-.274-.179-.632-.309-1.074-.389-.444-.08-.883-.12-1.315-.12-.424 0-.828.065-1.21.198-.381.132-.715.323-1.004.573-.289.249-.516.553-.686.912s-.256.77-.256 1.231c0 .509.107.933.324 1.273.217.339.491.634.821.883.329.249.682.467 1.06.651.377.184.728.367 1.054.551s.596.389.813.616c.216.226.325.499.325.82 0 .529-.153.927-.459 1.195s-.748.403-1.322.403c-.19 0-.392-.019-.609-.057-.217-.037-.434-.087-.65-.149-.217-.062-.426-.127-.629-.197-.203-.071-.371-.144-.502-.219l-.297 1.216c.159.142.352.262.573.361.222.099.454.177.701.234.244.057.488.097.728.12s.474.035.7.035c.528 0 1-.08 1.414-.24s.764-.374 1.047-.643c.284-.269.502-.581.658-.933.156-.353.234-.719.234-1.097 0-.557-.109-1.012-.325-1.365-.219-.353-.49-.648-.815-.884"/><path d="m14.4828 20.6897v-4.138c0-.57.463-1.034 1.034-1.034.573 0 1.035-.464 1.035-1.035s-.462-1.034-1.035-1.034c-1.711 0-3.103 1.392-3.103 3.103v4.138c0 1.141-.928 2.069-2.069 2.069-.572 0-1.034.463-1.034 1.034s.462 1.035 1.034 1.035c1.141 0 2.069.928 2.069 2.069v4.138c0 1.711 1.392 3.103 3.103 3.103.573 0 1.035-.463 1.035-1.034s-.462-1.035-1.035-1.035c-.571 0-1.034-.464-1.034-1.034v-4.138c0-1.241-.561-2.344-1.43-3.104.869-.759 1.43-1.862 1.43-3.103"/><path d="m22.7586 18.6207c.857 0 1.552.695 1.552 1.552s-.695 1.551-1.552 1.551-1.552-.694-1.552-1.551.695-1.552 1.552-1.552"/><path d="m22.7586 25.8621c-.572 0-1.034.463-1.034 1.034v3.104c0 .571.462 1.034 1.034 1.034s1.034-.463 1.034-1.034v-3.104c0-.571-.462-1.034-1.034-1.034"/></g></svg>