<svg height="60" viewBox="0 0 47 60" width="47" xmlns="http://www.w3.org/2000/svg" xmlns:xlink="http://www.w3.org/1999/xlink"><mask id="a" fill="#fff"><path d="m0 0h46.552v59.9998h-46.552z" fill="#fff" fill-rule="evenodd"/></mask><g fill="#0085cc" fill-rule="evenodd"><path d="m2.069 40.3448v-37.318c0-.224.034-.958.479-.958h29.581c-.034.13-.06.265-.06.405v12.009h12.008c.14 0 .274-.026.405-.06 0 .015.001.022.001.037v25.885zm.479 17.586c-.073 0-.14-.026-.205-.05-.16-.077-.274-.238-.274-.429v-15.038h42.414v15.038c0 .191-.114.352-.274.429-.066.024-.132.05-.205.05zm31.59-54.243 8.726 8.726h-8.726zm11.844 8.919-1.408-1.408-9.832-9.832-.001-.001-.798-.798c-.367-.366-.854-.568-1.372-.568h-30.023c-1.228 0-2.548.948-2.548 3.027v37.318 17.107.479c0 .866.87 1.709 1.899 1.975.053.015.104.034.158.045.161.032.325.049.491.049h41.456c.165 0 .33-.017.491-.049.054-.011.105-.03.157-.045 1.03-.266 1.9-1.109 1.9-1.975v-.479-17.107-25.885c0-.793-.096-1.38-.57-1.853z" mask="url(#a)"/><path d="m10.6696 50.0069h-4.511v-4.568h-1.726v10.423h1.726v-4.695h4.511v4.695h1.698v-10.423h-1.698z"/><path d="m14.4186 46.5983h3.111v9.264h1.712v-9.264h3.11v-1.16h-7.933z"/><path d="m29.1983 52.5662-3.098-7.128h-1.725v10.424h1.725v-7.171l2.348 5.799h1.499l2.334-5.799v7.171h1.725v-10.424h-1.725z"/><path d="m38.3483 45.4386h-1.726v10.423h6.521v-1.286h-4.795z"/><path d="m18.3176 17.8893c-.404-.404-1.058-.404-1.463 0l-6.207 6.207c-.404.404-.404 1.058 0 1.463l6.207 6.207c.202.201.467.303.732.303.264 0 .529-.102.731-.303.404-.405.404-1.059 0-1.463l-5.476-5.476 5.476-5.475c.404-.405.404-1.059 0-1.463"/><path d="m30.7314 17.8893c-.404-.404-1.058-.404-1.463 0-.404.404-.404 1.058 0 1.463l5.476 5.475-5.476 5.476c-.404.404-.404 1.058 0 1.463.202.201.467.303.732.303.264 0 .529-.102.731-.303l6.207-6.207c.404-.405.404-1.059 0-1.463z"/></g></svg>