<svg height="60" viewBox="0 0 60 60" width="60" xmlns="http://www.w3.org/2000/svg" xmlns:xlink="http://www.w3.org/1999/xlink"><mask id="a" fill="#fff"><path d="m0 60h60v-60h-60z" fill="#fff" fill-rule="evenodd"/></mask><g fill="#0085cc" fill-rule="evenodd"><path d="m58 57c0 .552-.448 1-1 1h-54c-.552 0-1-.448-1-1v-54c0-.552.448-1 1-1h54c.552 0 1 .448 1 1zm-1-57h-54c-1.657 0-3 1.343-3 3v54c0 1.657 1.343 3 3 3h54c1.657 0 3-1.343 3-3v-54c0-1.657-1.343-3-3-3z"/><path d="m22 10h30v-2h-30zm31-4h-32c-.552 0-1 .448-1 1v4c0 .552.448 1 1 1h32c.552 0 1-.448 1-1v-4c0-.552-.448-1-1-1z" mask="url(#a)"/><path d="m22 18h30v-2h-30zm31-4h-32c-.552 0-1 .448-1 1v4c0 .552.448 1 1 1h32c.552 0 1-.448 1-1v-4c0-.552-.448-1-1-1z" mask="url(#a)"/><path d="m22 26h30v-2h-30zm31-4h-32c-.552 0-1 .448-1 1v4c0 .552.448 1 1 1h32c.552 0 1-.448 1-1v-4c0-.552-.448-1-1-1z" mask="url(#a)"/><path d="m51 36c-.552 0-1-.448-1-1s.448-1 1-1 1 .448 1 1-.448 1-1 1m0-4c-1.657 0-3 1.343-3 3s1.343 3 3 3 3-1.343 3-3-1.343-3-3-3" mask="url(#a)"/><path d="m51 44c-.552 0-1-.448-1-1s.448-1 1-1 1 .448 1 1-.448 1-1 1m0-4c-1.657 0-3 1.343-3 3s1.343 3 3 3 3-1.343 3-3-1.343-3-3-3" mask="url(#a)"/><path d="m51 52c-.552 0-1-.448-1-1s.448-1 1-1 1 .448 1 1-.448 1-1 1m0-4c-1.657 0-3 1.343-3 3s1.343 3 3 3 3-1.343 3-3-1.343-3-3-3" mask="url(#a)"/><path d="m26 52h18v-18h-18zm18-20h-18c-1.104 0-2 .896-2 2v18c0 1.104.896 2 2 2h18c1.104 0 2-.896 2-2v-18c0-1.104-.896-2-2-2z" mask="url(#a)"/><path d="m31 47h8v-8h-8zm0 2h8c1.104 0 2-.896 2-2v-8c0-1.104-.896-2-2-2h-8c-1.104 0-2 .896-2 2v8c0 1.104.896 2 2 2z" mask="url(#a)"/><path d="m8 26h8v-8h-8zm-1 2h10c.552 0 1-.448 1-1v-10c0-.552-.448-1-1-1h-10c-.552 0-1 .448-1 1v10c0 .552.448 1 1 1z" mask="url(#a)"/><path d="m8 12h8v-4h-8zm-1 2h10c.552 0 1-.448 1-1v-6c0-.552-.448-1-1-1h-10c-.552 0-1 .448-1 1v6c0 .552.448 1 1 1z" mask="url(#a)"/><path d="m14 52h4v-4h-4zm-6 0h4v-4h-4zm0-12h4v-4h-4zm6 0h4v-4h-4zm-6 6h4v-4h-4zm6 0h4v-4h-4zm5-12h-12c-.552 0-1 .448-1 1v18c0 .552.448 1 1 1h12c.552 0 1-.448 1-1v-18c0-.552-.448-1-1-1z" mask="url(#a)"/></g></svg>