<svg height="34" viewBox="0 0 34 34" width="34" xmlns="http://www.w3.org/2000/svg"><g fill="none" fill-rule="evenodd"><circle cx="17" cy="17" fill="#fff" r="17"/><path d="m24 12.0261194c0 2.5373134-1.2903226 4.25-3.483871 5.8358209-2.0645161 1.4906716-2.2903225 2.4104478-2.2903225 4.3451493v.7929104h-2.6451613v-.8880597c0-3.3936567 1.0645161-4.5037313 3.6129032-6.4384328 1.2903226-.983209 1.9677419-1.9664179 1.9677419-3.6791045 0-.9514926-.3548387-1.7761194-.9677419-2.41044778-.7096774-.72947761-1.8064516-1.14179104-2.9677419-1.14179104-2.8064517 0-4.3225807 2.06156712-4.3225807 4.53544772h-2.9032258c0-3.58395518 2.483871-6.9776119 7.2258065-6.9776119 3.6451612 0 6.7741935 2.25186567 6.7741935 6.0261194zm-5.5 16.4238806h-3v-3h3z" fill="#333" fill-rule="nonzero"/></g></svg>