<svg height="80" viewBox="0 0 80 80" width="80" xmlns="http://www.w3.org/2000/svg" xmlns:xlink="http://www.w3.org/1999/xlink"><mask id="a" fill="#fff"><path d="m0 80h80v-80h-80z" fill="#fff" fill-rule="evenodd"/></mask><g fill="#98b5c6" fill-rule="evenodd"><path d="m45.3333333 69.3333333v-6.7253333c4.0781667-.2571667 7.9966667-1.6803333 11.2896667-4.1001667l.0371667.0376667.9335-.7733333 1.1276666-.9336667-.0533333-.0533333c3.5546667-3.3945 5.8313333-7.9088334 6.4478333-12.7851667h.0658334l.0983333-1.4836667v-.0241666l.0775-1.1588334h-.0241667c.0078334-5.1966666-1.8971666-10.2141666-5.3515-14.0956666l-.8978333-.9883334-.9876667-.8971666c-3.541-3.1438334-8.0358333-5.0058334-12.763-5.287v-6.7318334h32v64h-40.7813333zm-4.0795 0-6.5871666 6.1146667v-6.1146667zm-38.58716663-2.6666666h40.00000003v-64.00000003h-40.00000003zm48.82416663-34.711c-1.7668333-1.4198334-3.9036666-2.3046667-6.1575-2.5488334v-6.6933333c4.0246667.2755 7.849 1.8595 10.8893334 4.5105zm4.5091667 9.3776666c.0078333-2.7233333-.918-5.3671666-2.6236667-7.4908333l4.733-4.7331667c2.9505 3.3873334 4.5703334 7.7318334 4.557411 12.224zm-10.6666667 11.9251667c1.6055-.1765 3.1581667-.679 4.5625-1.4771667l4.8281667 4.8293334c-2.7701667 1.9426666-6.0156667 3.0976666-9.3906667 3.3411666zm0-21.153c3.7851667.5533333 6.8496667 3.3606667 7.7318334 7.0833333.8821666 3.7226667-.597 7.6061667-3.7318334 9.7995-1.1913333.8313334-2.5611666 1.3716667-4 1.5768334zm6.748 18.0891667c1.8066667-1.6491667 3.0665-3.8105 3.6106667-6.1946667h6.7611667c-.6041667 4.17-2.5956667 8.015-5.653 10.9146667zm27.9186667-39.528h-34.6666667v-10.6666667h-45.3333333v69.3333333h32v10.6666667h48z"/><path d="m29.2307692 29.4h8.0769231v-7.8h-8.0769231zm-10.7692307 0h8.076923v-7.8h-8.076923zm-10.76923081 0h8.07692311v-7.8h-8.07692311zm-2.69230769 2.6h35v-13h-35z" mask="url(#a)"/><path d="m29.2307692 52.4h8.0769231v-7.8h-8.0769231zm-10.7692307 0h8.076923v-7.8h-8.076923zm-10.76923081 0h8.07692311v-7.8h-8.07692311zm-2.69230769 2.6h35v-13h-35z" mask="url(#a)"/><path d="m5 11h11v-3h-11z" mask="url(#a)"/><path d="m5 16h8v-3h-8z" mask="url(#a)"/><path d="m19 11h3v-3h-3z" mask="url(#a)"/><path d="m5 39h11v-3h-11z" mask="url(#a)"/><path d="m19 39h3v-3h-3z" mask="url(#a)"/><path d="m66.75 24.25h5.5v-5.5h-5.5zm-2.75 2.75h11v-11h-11z" mask="url(#a)"/><path d="m58 64h17v-3h-17z" mask="url(#a)"/><path d="m57 75h15v-3h-15z" mask="url(#a)"/><path d="m57 70h11v-3h-11z" mask="url(#a)"/><path d="m71 70h3v-3h-3z" mask="url(#a)"/></g></svg>