<svg height="70" viewBox="0 0 77 70" width="77" xmlns="http://www.w3.org/2000/svg"><g fill="#98b5c6" fill-rule="evenodd"><path d="m0 0v58.8634951h23.8633645v7.9549127h-6.363412v3.1815922h41.3635242v-3.1815922h-6.363412v-7.9549127h23.8635717v-58.8634951zm3.1816024 46.1358834h70.0000173v-42.95408405h-70.0000173zm0 9.5458124h70.0000173v-6.3633916h-70.0000173zm23.8635716 11.1365048h22.2722526v-7.9547055h-22.2722526z"/><path d="m47.2727273 9.09090909h20.9090909v-2.72727273h-20.9090909z"/><path d="m36.3636364 9.09090909h8.1818181v-2.72727273h-8.1818181z"/><path d="m30 9.09090909h2.7272727v-2.72727273h-2.7272727z"/><path d="m23.6363636 9.09090909h2.7272728v-2.72727273h-2.7272728z"/><path d="m49.0909091 32.7272727h19.0909091v-2.7272727h-19.0909091z"/><path d="m42.7272727 32.7272727h2.7272728v-2.7272727h-2.7272728z"/><path d="m36.3636364 32.7272727h2.7272727v-2.7272727h-2.7272727z"/><path d="m52.7272727 25.4545455h15.4545455v-2.7272728h-15.4545455z"/><path d="m30 25.4545455h19.0909091v-2.7272728h-19.0909091z"/><path d="m34.5454545 17.2727273h6.3636364v-2.7272728h-6.3636364z"/><path d="m44.5454545 17.2727273h23.6363637v-2.7272728h-23.6363637z"/><path d="m8.18181818 17.2727273h23.63636362v-2.7272728h-23.63636362z"/><path d="m38.1818182 40.9090909h30v-2.7272727h-30z"/><path d="m27.7411706 28.1818182-2.2866251 2.2916148 4.5166058 4.5264615-4.5166058 4.5266725 2.2866251 2.2916148 6.8042839-6.8182873z"/><path d="m14.5454545 30.473433-2.2866251-2.2916148-6.80428395 6.8180763 6.80428395 6.8182873 2.2866251-2.2916148-4.5166058-4.5266725z"/><path d="m15.4545455 42.4432424 6.2071433-16.079606 2.8837657 1.1931212-6.2069411 16.079606z"/></g></svg>