<svg height="78" viewBox="0 0 78 78" width="78" xmlns="http://www.w3.org/2000/svg" xmlns:xlink="http://www.w3.org/1999/xlink"><mask id="a" fill="#fff"><path d="m0 78h78v-78h-78z" fill="#fff" fill-rule="evenodd"/></mask><g fill="#98b5c6" fill-rule="evenodd"><path d="m4.875 7.8h2.925v-2.925h-2.925z"/><path d="m10.725 7.8h2.925v-2.925h-2.925z"/><path d="m15.6 7.8h2.925v-2.925h-2.925z"/><path d="m0 78h78v-78h-78zm23.4-67.6h52v-7.8h-52zm-20.8 0h18.2002167v-7.8h-18.2002167zm0 65h72.8002167v-62.4h-72.8002167z"/><path d="m39 18.2v18.2h-8.2630167c2.7583834-2.2149833 4.3630167-5.5622667 4.3630167-9.1s-1.6046333-6.8850167-4.3630167-9.1zm-31.2 18.2v-18.2h8.2630167c-2.7583834 2.2149833-4.3630167 5.5622667-4.3630167 9.1s1.6046333 6.8850167 4.3630167 9.1zm24.7-9.1c0 3.6807333-2.2173667 6.99855-5.6173 8.40775-3.4005833 1.4083333-7.3151.6296333-9.9174833-1.9729667-2.6026-2.6023833-3.3813-6.5169-1.9729667-9.9174833 1.4092-3.3999333 4.7270167-5.6173 8.40775-5.6173 5.0232.00585 9.09415 4.0768 9.1 9.1zm-27.3 11.7h36.4v-23.4h-36.4z"/><path d="m46.8 20.8h23.4v-2.6h-23.4zm0 10.4h23.4v-2.6h-23.4zm0 10.4h23.4v-2.6h-23.4zm23.4 27.1951333-20.9939167-16.7951333h20.9939167zm-23.4-15.3902666 20.9939167 16.7951333h-20.9939167zm-2.6-30.0048667h13v2.6h-13v7.8h13v2.6h-13v7.8h13v5.2h-13v23.4h28.6v-23.4h-13v-5.2h13v-7.8h-13v-2.6h13v-7.8h-13v-2.6h13v-7.8h-28.6z" mask="url(#a)"/><path d="m22.054305 26.2165583v2.1668834l2.1666667-1.08355zm-2.4567833 6.14185v-10.1168166l10.1168166 5.0583z" mask="url(#a)"/><path d="m7.8 70.2h10.4v-5.2h-10.4zm-2.6 2.6h15.6v-10.4h-15.6z" mask="url(#a)"/><path d="m26 70.2h10.4v-5.2h-10.4zm-2.6 2.6h15.6v-10.4h-15.6z" mask="url(#a)"/><path d="m5.2 44.2h23.4v-2.6h-23.4z" mask="url(#a)"/><path d="m31.2 44.2h2.6v-2.6h-2.6z" mask="url(#a)"/><path d="m5.2 49.4h10.4v-2.6h-10.4z" mask="url(#a)"/><path d="m18.2 49.4h2.6v-2.6h-2.6z" mask="url(#a)"/><path d="m23.4 49.4h18.2v-2.6h-18.2z" mask="url(#a)"/><path d="m5.2 54.6h36.4v-2.6h-36.4z" mask="url(#a)"/><path d="m5.2 59.8h10.4v-2.6h-10.4z" mask="url(#a)"/><path d="m18.2 59.8h2.6v-2.6h-2.6z" mask="url(#a)"/><path d="m23.4 59.8h5.2v-2.6h-5.2z" mask="url(#a)"/><path d="m31.2 59.8h2.6v-2.6h-2.6z" mask="url(#a)"/></g></svg>