<svg enable-background="new 0 0 734 136" viewBox="0 0 734 136" xmlns="http://www.w3.org/2000/svg"><g fill="currentColor"><path d="m229.549 87.988c-1.859 2.787-4.003 5.305-6.469 7.556-2.465 2.251-5.154 4.163-8.084 5.734-2.931 1.573-6.016 2.787-9.267 3.644-3.253.857-6.589 1.286-10.019 1.286-11.146 0-20.721-3.929-28.722-11.789-7.861-8.073-11.789-17.647-11.789-28.723 0-11.075 3.966-20.578 11.897-28.509 8.001-8.001 17.54-12.004 28.616-12.004 6.501 0 12.647 1.518 18.434 4.555 5.788 3.038 10.718 7.342 14.79 12.915l-9.539 6.645c-3.001-3.929-6.575-6.983-10.718-9.164-4.145-2.178-8.467-3.269-12.968-3.269-8.002 0-14.827 2.787-20.471 8.36-5.646 5.788-8.467 12.612-8.467 20.471 0 7.861 2.821 14.683 8.467 20.471 5.786 5.645 12.867 8.467 20.727 8.467 9.287 0 16.657-3.5 22.657-10.503v-12.131h-24v-11h35v26.345z"/><path d="m284.626 104.386v-8.038c-5 6.575-12.904 9.86-21.548 9.86-8.432 0-15.544-3.143-21.117-9.431-5.503-6.002-8.308-13.217-8.308-21.65 0-8.503 2.759-15.755 8.332-21.757 2.715-3.216 5.827-5.591 9.364-7.127 3.537-1.535 7.59-2.304 11.735-2.304 8.502 0 15.541 3.287 21.541 9.86v-6.799h12v58h-12.441zm-6.121-43.085c-3.788-3.787-8.397-5.68-13.826-5.68-5.431 0-10.04 1.893-13.826 5.68-3.788 3.788-5.68 8.397-5.68 13.826 0 5.431 1.892 10.04 5.68 13.826 3.786 3.788 8.394 5.68 13.826 5.68 5.429 0 10.038-1.892 13.826-5.68 3.787-3.786 5.68-8.394 5.68-13.826.001-5.429-1.894-10.037-5.68-13.826z"/><path d="m313.325 120.463c-3.001 3.001-6.475 4.501-10.618 4.501-2.858 0-5.701-.894-8.632-2.679l5.491-10.503c1.429 1.071 2.513 1.608 3.228 1.608 1 0 1.951-.358 2.666-1.072.713-.715 1.166-1.572 1.166-2.572v-62.746h11v62.744c0 4.144-1.3 7.718-4.301 10.719zm4.379-82.097c-1.5 1.5-3.322 2.251-5.465 2.251-2.144 0-3.966-.75-5.466-2.251s-2.251-3.322-2.251-5.466.75-3.966 2.251-5.466 3.322-2.251 5.466-2.251 3.964.75 5.465 2.251c1.5 1.5 2.251 3.322 2.251 5.466.001 2.143-.751 3.965-2.251 5.466z"/><path d="m339.861 38.366c-1.5 1.5-3.322 2.251-5.466 2.251s-3.966-.75-5.466-2.251-2.251-3.322-2.251-5.466.75-3.966 2.251-5.466 3.322-2.251 5.466-2.251 3.966.75 5.466 2.251 2.251 3.322 2.251 5.466c.001 2.143-.75 3.965-2.251 5.466zm-11.235 66.634v-58h12v58z"/><path d="m351.626 80v-9h39v9z"/><path d="m401.626 107v-78h12v65h33v13z"/><path d="m495.626 106.061v-8.038c-6 6.575-12.931 9.86-21.576 9.86-8.43 0-15.557-3.143-21.13-9.431-5.503-6.002-8.315-13.217-8.315-21.65 0-8.503 2.756-15.755 8.329-21.757 2.715-3.216 5.826-5.591 9.361-7.127 3.537-1.535 7.618-2.304 11.762-2.304 8.503 0 15.569 3.287 21.569 9.86v-7.474h11v59h-11.496zm-6.175-43.085c-3.789-3.787-8.398-5.68-13.827-5.68s-10.038 1.893-13.826 5.68c-3.788 3.788-5.679 8.397-5.679 13.826 0 5.431 1.892 10.04 5.679 13.826 3.788 3.788 8.397 5.68 13.826 5.68s10.038-1.892 13.827-5.68c3.786-3.786 5.679-8.394 5.679-13.826 0-5.429-1.893-10.038-5.679-13.826z"/><path d="m569.738 98.451c-5.646 6.288-12.647 9.432-21.007 9.432-4.432 0-8.231-.823-11.733-2.465-3.501-1.643-7.373-4.107-9.373-7.395v8.977h-12v-78h12v26.474c2-3.215 5.872-5.661 9.373-7.342 3.501-1.678 7.383-2.519 11.815-2.519 8.288 0 15.214 3.145 20.857 9.431 5.573 6.146 8.339 13.397 8.339 21.757.003 8.29-2.769 15.507-8.271 21.65zm-9.111-35.475c-3.788-3.787-8.395-5.68-13.826-5.68s-10.04 1.893-13.826 5.68c-3.788 3.788-5.679 8.397-5.679 13.826 0 5.431 1.892 10.04 5.679 13.826 3.786 3.788 8.394 5.68 13.826 5.68 5.429 0 10.038-1.892 13.826-5.68 3.788-3.786 5.681-8.394 5.681-13.826.001-5.429-1.893-10.038-5.681-13.826z"/><path d="m635.235 98.666c-6.146 6.146-13.469 9.217-21.971 9.217s-15.792-3.071-21.864-9.217c-6.146-6.072-9.217-13.36-9.217-21.864 0-8.503 3.071-15.825 9.217-21.971 6.072-6.145 13.361-9.217 21.864-9.217s15.825 3.072 21.971 9.217c6.145 6.147 9.217 13.468 9.217 21.971.001 8.504-3.072 15.792-9.217 21.864zm-8.144-35.69c-3.789-3.787-8.398-5.68-13.827-5.68s-10.038 1.893-13.826 5.68c-3.788 3.788-5.679 8.397-5.679 13.826 0 5.431 1.892 10.04 5.679 13.826 3.788 3.788 8.397 5.68 13.826 5.68s10.038-1.892 13.827-5.68c3.786-3.786 5.679-8.394 5.679-13.826.001-5.429-1.893-10.038-5.679-13.826z"/><path d="m670.626 49v16h-8v-16h-17v-8h17v-17h8v17h17v8z"/><path d="m716.626 49v16h-8v-16h-16v-8h16v-17h8v17h17v8z"/></g><path d="m67.625 0c-37.555 0-67.999 30.443-67.999 68 0 37.556 30.443 68 67.999 68 37.559 0 68.001-30.444 68.001-68 0-37.557-30.443-68-68.001-68zm43.509 108h-13.508v-35h-50v35h-14v-35h-21v-14h21v-36h14v36h7v-36h15v36h7v-36h14v36h21v49z" fill="currentColor"/></svg>
