<?xml version="1.0" encoding="utf-8"?><svg xmlns="http://www.w3.org/2000/svg" xmlns:xlink="http://www.w3.org/1999/xlink"><symbol viewBox="0 0 16 10" id="arrow-down" xmlns="http://www.w3.org/2000/svg"><path d="M15.071 1L8 8.071.929 1" fill="none" stroke="currentColor" stroke-width="2"/></symbol><symbol viewBox="0 0 10 16" id="arrow-left" xmlns="http://www.w3.org/2000/svg"><path d="M9 .929L1.929 8 9 15.071" stroke="#333" stroke-width="2" fill="none" fill-rule="evenodd"/></symbol><symbol viewBox="0 0 10 16" id="arrow-right" xmlns="http://www.w3.org/2000/svg"><path d="M1 .929L8.071 8 1 15.071" fill="none" stroke="currentColor" stroke-width="2"/></symbol><symbol viewBox="0 0 14 12" id="blank" xmlns="http://www.w3.org/2000/svg"><path fill="currentColor" fill-rule="evenodd" d="M1 12H0V4h3V0h11v8h-3v4H1zm0-1h9V8H3V5H1v6zm10-4h2V2H4v5h7z"/></symbol><symbol viewBox="0 0 27 30" id="checkup" xmlns="http://www.w3.org/2000/svg"><mask id="ea" fill="currentColor"><path d="M0 .293h20v26H0z" fill-rule="evenodd"/></mask><g fill="none" fill-rule="evenodd"><g stroke="currentColor" stroke-width="2"><path d="M13 1v6h6M15.157 19.965a5.42 5.42 0 1010.842 0 5.42 5.42 0 00-10.842 0zM11.543 29l5.12-5.12"/></g><path d="M10.758 24.293H2v-22h10.586L18 7.707v4.023a7.496 7.496 0 012-.412v-4.44L13.414.294H0v26h8.758z" fill="currentColor" mask="url(#ea)" transform="translate(0 -.293)"/></g></symbol><symbol viewBox="0 0 20 20" id="close" xmlns="http://www.w3.org/2000/svg"><g fill="currentColor" fill-rule="evenodd"><path d="M2.222.808l16.97 16.97-1.414 1.414L.808 2.222z"/><path d="M17.778.808L.808 17.778l1.414 1.414 16.97-16.97z"/></g></symbol><symbol viewBox="0 0 24 28" id="facebook" xmlns="http://www.w3.org/2000/svg"><path d="M22.672 2C23.406 2 24 2.594 24 3.328v21.344c0 .734-.594 1.328-1.328 1.328h-6.109v-9.297h3.109l.469-3.625h-3.578v-2.312c0-1.047.281-1.75 1.797-1.75L20.266 9V5.766c-.328-.047-1.469-.141-2.781-.141-2.766 0-4.672 1.687-4.672 4.781v2.672H9.688v3.625h3.125V26H1.329a1.327 1.327 0 01-1.328-1.328V3.328C.001 2.594.595 2 1.329 2h21.344z"/></symbol><symbol viewBox="0 0 24 28" id="instagram" xmlns="http://www.w3.org/2000/svg"><path d="M16 14c0-2.203-1.797-4-4-4s-4 1.797-4 4 1.797 4 4 4 4-1.797 4-4zm2.156 0c0 3.406-2.75 6.156-6.156 6.156S5.844 17.406 5.844 14 8.594 7.844 12 7.844s6.156 2.75 6.156 6.156zm1.688-6.406c0 .797-.641 1.437-1.437 1.437S16.97 8.39 16.97 7.594s.641-1.437 1.437-1.437 1.437.641 1.437 1.437zM12 4.156c-1.75 0-5.5-.141-7.078.484-.547.219-.953.484-1.375.906s-.688.828-.906 1.375c-.625 1.578-.484 5.328-.484 7.078s-.141 5.5.484 7.078c.219.547.484.953.906 1.375s.828.688 1.375.906c1.578.625 5.328.484 7.078.484s5.5.141 7.078-.484c.547-.219.953-.484 1.375-.906s.688-.828.906-1.375c.625-1.578.484-5.328.484-7.078s.141-5.5-.484-7.078c-.219-.547-.484-.953-.906-1.375s-.828-.688-1.375-.906C17.5 4.015 13.75 4.156 12 4.156zM24 14c0 1.656.016 3.297-.078 4.953-.094 1.922-.531 3.625-1.937 5.031s-3.109 1.844-5.031 1.937c-1.656.094-3.297.078-4.953.078s-3.297.016-4.953-.078c-1.922-.094-3.625-.531-5.031-1.937S.173 20.875.08 18.953C-.014 17.297.002 15.656.002 14s-.016-3.297.078-4.953c.094-1.922.531-3.625 1.937-5.031s3.109-1.844 5.031-1.937c1.656-.094 3.297-.078 4.953-.078s3.297-.016 4.953.078c1.922.094 3.625.531 5.031 1.937s1.844 3.109 1.937 5.031C24.016 10.703 24 12.344 24 14z"/></symbol><symbol viewBox="0 0 734 136" id="logo" xmlns="http://www.w3.org/2000/svg"><g fill="currentColor"><path d="M229.549 87.988a40.884 40.884 0 01-6.469 7.556 39.907 39.907 0 01-8.084 5.734 42.335 42.335 0 01-9.267 3.644 39.141 39.141 0 01-10.019 1.286c-11.146 0-20.721-3.929-28.722-11.789-7.861-8.073-11.789-17.647-11.789-28.723 0-11.075 3.966-20.578 11.897-28.509 8.001-8.001 17.54-12.004 28.616-12.004 6.501 0 12.647 1.518 18.434 4.555 5.788 3.038 10.718 7.342 14.79 12.915l-9.539 6.645c-3.001-3.929-6.575-6.983-10.718-9.164-4.145-2.178-8.467-3.269-12.968-3.269-8.002 0-14.827 2.787-20.471 8.36-5.646 5.788-8.467 12.612-8.467 20.471 0 7.861 2.821 14.683 8.467 20.471 5.786 5.645 12.867 8.467 20.727 8.467 9.287 0 16.657-3.5 22.657-10.503V72h-24V61h35v26.345zM284.626 104.386v-8.038c-5 6.575-12.904 9.86-21.548 9.86-8.432 0-15.544-3.143-21.117-9.431-5.503-6.002-8.308-13.217-8.308-21.65 0-8.503 2.759-15.755 8.332-21.757 2.715-3.216 5.827-5.591 9.364-7.127 3.537-1.535 7.59-2.304 11.735-2.304 8.502 0 15.541 3.287 21.541 9.86V47h12v58h-12.441zm-6.121-43.085c-3.788-3.787-8.397-5.68-13.826-5.68-5.431 0-10.04 1.893-13.826 5.68-3.788 3.788-5.68 8.397-5.68 13.826 0 5.431 1.892 10.04 5.68 13.826 3.786 3.788 8.394 5.68 13.826 5.68 5.429 0 10.038-1.892 13.826-5.68 3.787-3.786 5.68-8.394 5.68-13.826.001-5.429-1.894-10.037-5.68-13.826zM313.325 120.463c-3.001 3.001-6.475 4.501-10.618 4.501-2.858 0-5.701-.894-8.632-2.679l5.491-10.503c1.429 1.071 2.513 1.608 3.228 1.608 1 0 1.951-.358 2.666-1.072.713-.715 1.166-1.572 1.166-2.572V47h11v62.744c0 4.144-1.3 7.718-4.301 10.719zm4.379-82.097c-1.5 1.5-3.322 2.251-5.465 2.251-2.144 0-3.966-.75-5.466-2.251s-2.251-3.322-2.251-5.466.75-3.966 2.251-5.466 3.322-2.251 5.466-2.251 3.964.75 5.465 2.251c1.5 1.5 2.251 3.322 2.251 5.466.001 2.143-.751 3.965-2.251 5.466zM339.861 38.366c-1.5 1.5-3.322 2.251-5.466 2.251s-3.966-.75-5.466-2.251-2.251-3.322-2.251-5.466.75-3.966 2.251-5.466 3.322-2.251 5.466-2.251 3.966.75 5.466 2.251 2.251 3.322 2.251 5.466c.001 2.143-.75 3.965-2.251 5.466zM328.626 105V47h12v58zM351.626 80v-9h39v9zM401.626 107V29h12v65h33v13zM495.626 106.061v-8.038c-6 6.575-12.931 9.86-21.576 9.86-8.43 0-15.557-3.143-21.13-9.431-5.503-6.002-8.315-13.217-8.315-21.65 0-8.503 2.756-15.755 8.329-21.757 2.715-3.216 5.826-5.591 9.361-7.127 3.537-1.535 7.618-2.304 11.762-2.304 8.503 0 15.569 3.287 21.569 9.86V48h11v59H495.13zm-6.175-43.085c-3.789-3.787-8.398-5.68-13.827-5.68s-10.038 1.893-13.826 5.68c-3.788 3.788-5.679 8.397-5.679 13.826 0 5.431 1.892 10.04 5.679 13.826 3.788 3.788 8.397 5.68 13.826 5.68s10.038-1.892 13.827-5.68c3.786-3.786 5.679-8.394 5.679-13.826 0-5.429-1.893-10.038-5.679-13.826zM569.738 98.451c-5.646 6.288-12.647 9.432-21.007 9.432-4.432 0-8.231-.823-11.733-2.465-3.501-1.643-7.373-4.107-9.373-7.395V107h-12V29h12v26.474c2-3.215 5.872-5.661 9.373-7.342 3.501-1.678 7.383-2.519 11.815-2.519 8.288 0 15.214 3.145 20.857 9.431 5.573 6.146 8.339 13.397 8.339 21.757.003 8.29-2.769 15.507-8.271 21.65zm-9.111-35.475c-3.788-3.787-8.395-5.68-13.826-5.68s-10.04 1.893-13.826 5.68c-3.788 3.788-5.679 8.397-5.679 13.826 0 5.431 1.892 10.04 5.679 13.826 3.786 3.788 8.394 5.68 13.826 5.68 5.429 0 10.038-1.892 13.826-5.68 3.788-3.786 5.681-8.394 5.681-13.826.001-5.429-1.893-10.038-5.681-13.826zM635.235 98.666c-6.146 6.146-13.469 9.217-21.971 9.217s-15.792-3.071-21.864-9.217c-6.146-6.072-9.217-13.36-9.217-21.864 0-8.503 3.071-15.825 9.217-21.971 6.072-6.145 13.361-9.217 21.864-9.217s15.825 3.072 21.971 9.217c6.145 6.147 9.217 13.468 9.217 21.971.001 8.504-3.072 15.792-9.217 21.864zm-8.144-35.69c-3.789-3.787-8.398-5.68-13.827-5.68s-10.038 1.893-13.826 5.68c-3.788 3.788-5.679 8.397-5.679 13.826 0 5.431 1.892 10.04 5.679 13.826 3.788 3.788 8.397 5.68 13.826 5.68s10.038-1.892 13.827-5.68c3.786-3.786 5.679-8.394 5.679-13.826.001-5.429-1.893-10.038-5.679-13.826zM670.626 49v16h-8V49h-17v-8h17V24h8v17h17v8zM716.626 49v16h-8V49h-16v-8h16V24h8v17h17v8z"/></g><path d="M67.625 0C30.07 0-.374 30.443-.374 68c0 37.556 30.443 68 67.999 68 37.559 0 68.001-30.444 68.001-68 0-37.557-30.443-68-68.001-68zm43.509 108H97.626V73h-50v35h-14V73h-21V59h21V23h14v36h7V23h15v36h7V23h14v36h21v49z" fill="currentColor"/></symbol><symbol viewBox="0 0 24 16" id="menu" xmlns="http://www.w3.org/2000/svg"><g fill="currentColor" fill-rule="evenodd"><path d="M0 0h24v2H0zM0 7h24v2H0zM0 14h24v2H0z"/></g></symbol><symbol viewBox="0 0 24 24" id="resource-icon-design-support" xmlns="http://www.w3.org/2000/svg"><path d="M24 4.889L19.111 0l-3.298 3.311L20.702 8.2 24 4.889zM0 19.11V24h4.889L19.307 9.582l-4.889-4.889z" fill="#98b5c6" fill-rule="evenodd"/></symbol><symbol viewBox="0 0 30 24" id="resource-icon-frontend" xmlns="http://www.w3.org/2000/svg"><path d="M0 24h30V0H0zm21.75-3H27V7.5h-5.25zM3 12.75h15.75V7.5H3zM3 21h15.75v-5.25H3z" fill="#98b5c6" fill-rule="evenodd"/></symbol><symbol viewBox="0 0 34 20" id="resource-icon-markup" xmlns="http://www.w3.org/2000/svg"><path d="M21 17.667L28.667 10 21 2.333 23.333 0l10 10-10 10L21 17.667zm-8.667 0L4.667 10l7.666-7.667L10 0 0 10l10 10z" fill="#98b5c6" fill-rule="evenodd"/></symbol><symbol viewBox="0 0 26 26" id="resource-status-available" xmlns="http://www.w3.org/2000/svg"><circle cx="13" cy="13" fill="none" r="12" stroke="#333" stroke-width="2"/></symbol><symbol viewBox="0 0 24 21" id="resource-status-limited" xmlns="http://www.w3.org/2000/svg"><path d="M12 2l10 18H2z" fill="none" stroke="#333" stroke-width="2"/></symbol><symbol viewBox="0 0 2 22" id="resource-status-special" xmlns="http://www.w3.org/2000/svg"><g fill="#333" fill-rule="evenodd"><path d="M0 0h2v15H0zM0 18h2v4H0z"/></g></symbol><symbol viewBox="0 0 20 20" id="resource-status-unavailable" xmlns="http://www.w3.org/2000/svg"><g fill="none" fill-rule="evenodd"><path d="M-810-3334H630v5879H-810z" fill="#fff"/><g fill="#333"><path d="M2.222.808l16.97 16.97-1.414 1.414L.808 2.222z"/><path d="M17.778.808L.808 17.778l1.414 1.414 16.97-16.97z"/></g></g></symbol><symbol viewBox="0 0 26 28" id="twitter" xmlns="http://www.w3.org/2000/svg"><path d="M25.312 6.375a10.85 10.85 0 01-2.531 2.609c.016.219.016.438.016.656 0 6.672-5.078 14.359-14.359 14.359-2.859 0-5.516-.828-7.75-2.266.406.047.797.063 1.219.063 2.359 0 4.531-.797 6.266-2.156a5.056 5.056 0 01-4.719-3.5c.313.047.625.078.953.078.453 0 .906-.063 1.328-.172a5.048 5.048 0 01-4.047-4.953v-.063a5.093 5.093 0 002.281.641 5.044 5.044 0 01-2.25-4.203c0-.938.25-1.797.688-2.547a14.344 14.344 0 0010.406 5.281 5.708 5.708 0 01-.125-1.156 5.045 5.045 0 015.047-5.047 5.03 5.03 0 013.687 1.594 9.943 9.943 0 003.203-1.219 5.032 5.032 0 01-2.219 2.781c1.016-.109 2-.391 2.906-.781z"/></symbol></svg>